<svg width="102" height="95" viewBox="0 0 102 95" fill="none" xmlns="http://www.w3.org/2000/svg">
<g id="&#208;&#167;&#208;&#176;&#209;&#129;&#209;&#139;">
<g id="Group" filter="url(#filter0_ii_234_139)">
<g id="Group_2">
<g id="Vector" filter="url(#filter1_ii_234_139)">
<path d="M50.9999 19C37.2152 19 26 30.2152 26 43.9999C26 57.7847 37.2152 68.9999 50.9999 68.9999C64.7847 68.9999 75.9999 57.7847 75.9999 43.9999C75.9999 30.2152 64.7848 19 50.9999 19ZM31.4347 45.0869C30.8347 45.0869 30.3478 44.5999 30.3478 43.9999C30.3478 43.3999 30.8347 42.913 31.4347 42.913C32.0347 42.913 32.5217 43.3999 32.5217 43.9999C32.5217 44.5999 32.0347 45.0869 31.4347 45.0869ZM50.9999 23.3479C51.5999 23.3479 52.0869 23.8348 52.0869 24.4348C52.0869 25.0348 51.5999 25.5217 50.9999 25.5217C50.3999 25.5217 49.913 25.0347 49.913 24.4347C49.913 23.8347 50.3999 23.3479 50.9999 23.3479ZM50.9999 64.6521C50.3999 64.6521 49.913 64.1652 49.913 63.5652C49.913 62.9652 50.3999 62.4782 50.9999 62.4782C51.5999 62.4782 52.0869 62.9652 52.0869 63.5652C52.0869 64.1652 51.5999 64.6521 50.9999 64.6521ZM50.9999 47.2608C49.5847 47.2608 48.3891 46.3499 47.9391 45.0869H35.7826C35.1826 45.0869 34.6956 44.5999 34.6956 43.9999C34.6956 43.3999 35.1826 42.9131 35.7826 42.9131H47.9391C48.0304 42.6587 48.1391 42.4153 48.2869 42.1957L44.6934 37.4043C44.3347 36.9239 44.4326 36.2435 44.913 35.8826C45.3913 35.5239 46.0718 35.6174 46.4347 36.1L50.0347 40.9C50.3413 40.8065 50.6608 40.7391 50.9999 40.7391C52.7978 40.7391 54.2608 42.2021 54.2608 43.9999C54.2608 45.7978 52.7978 47.2608 50.9999 47.2608ZM70.5652 45.0869C69.9652 45.0869 69.4782 44.5999 69.4782 43.9999C69.4782 43.3999 69.9652 42.913 70.5652 42.913C71.1652 42.913 71.6521 43.3999 71.6521 43.9999C71.6521 44.5999 71.1652 45.0869 70.5652 45.0869Z" fill="url(#paint0_linear_234_139)"/>
</g>
</g>
</g>
<rect id="Rectangle 94" width="102" height="87" rx="20" fill="#008F39" fill-opacity="0.07"/>
<g id="Group_3" filter="url(#filter2_f_234_139)">
<g id="Group_4">
<g id="Vector_2" filter="url(#filter3_ii_234_139)">
<path d="M55.9999 25C42.2152 25 31 36.2152 31 49.9999C31 63.7847 42.2152 74.9999 55.9999 74.9999C69.7847 74.9999 80.9999 63.7847 80.9999 49.9999C80.9999 36.2152 69.7848 25 55.9999 25ZM36.4347 51.0869C35.8347 51.0869 35.3478 50.5999 35.3478 49.9999C35.3478 49.3999 35.8347 48.913 36.4347 48.913C37.0347 48.913 37.5217 49.3999 37.5217 49.9999C37.5217 50.5999 37.0347 51.0869 36.4347 51.0869ZM55.9999 29.3479C56.5999 29.3479 57.0869 29.8348 57.0869 30.4348C57.0869 31.0348 56.5999 31.5217 55.9999 31.5217C55.3999 31.5217 54.913 31.0347 54.913 30.4347C54.913 29.8347 55.3999 29.3479 55.9999 29.3479ZM55.9999 70.6521C55.3999 70.6521 54.913 70.1652 54.913 69.5652C54.913 68.9652 55.3999 68.4782 55.9999 68.4782C56.5999 68.4782 57.0869 68.9652 57.0869 69.5652C57.0869 70.1652 56.5999 70.6521 55.9999 70.6521ZM55.9999 53.2608C54.5847 53.2608 53.3891 52.3499 52.9391 51.0869H40.7826C40.1826 51.0869 39.6956 50.5999 39.6956 49.9999C39.6956 49.3999 40.1826 48.9131 40.7826 48.9131H52.9391C53.0304 48.6587 53.1391 48.4153 53.2869 48.1957L49.6934 43.4043C49.3347 42.9239 49.4326 42.2435 49.913 41.8826C50.3913 41.5239 51.0718 41.6174 51.4347 42.1L55.0347 46.9C55.3413 46.8065 55.6608 46.7391 55.9999 46.7391C57.7978 46.7391 59.2608 48.2021 59.2608 49.9999C59.2608 51.7978 57.7978 53.2608 55.9999 53.2608ZM75.5652 51.0869C74.9652 51.0869 74.4782 50.5999 74.4782 49.9999C74.4782 49.3999 74.9652 48.913 75.5652 48.913C76.1652 48.913 76.6521 49.3999 76.6521 49.9999C76.6521 50.5999 76.1652 51.0869 75.5652 51.0869Z" fill="url(#paint1_linear_234_139)" fill-opacity="0.6"/>
</g>
</g>
</g>
</g>
<defs>
<filter id="filter0_ii_234_139" x="26" y="19" width="53.9999" height="53.9999" filterUnits="userSpaceOnUse" color-interpolation-filters="sRGB">
<feFlood flood-opacity="0" result="BackgroundImageFix"/>
<feBlend mode="normal" in="SourceGraphic" in2="BackgroundImageFix" result="shape"/>
<feColorMatrix in="SourceAlpha" type="matrix" values="0 0 0 0 0 0 0 0 0 0 0 0 0 0 0 0 0 0 127 0" result="hardAlpha"/>
<feOffset dy="4"/>
<feGaussianBlur stdDeviation="2.5"/>
<feComposite in2="hardAlpha" operator="arithmetic" k2="-1" k3="1"/>
<feColorMatrix type="matrix" values="0 0 0 0 1 0 0 0 0 1 0 0 0 0 1 0 0 0 0.45 0"/>
<feBlend mode="normal" in2="shape" result="effect1_innerShadow_234_139"/>
<feColorMatrix in="SourceAlpha" type="matrix" values="0 0 0 0 0 0 0 0 0 0 0 0 0 0 0 0 0 0 127 0" result="hardAlpha"/>
<feOffset dx="4"/>
<feGaussianBlur stdDeviation="5"/>
<feComposite in2="hardAlpha" operator="arithmetic" k2="-1" k3="1"/>
<feColorMatrix type="matrix" values="0 0 0 0 0 0 0 0 0 0 0 0 0 0 0 0 0 0 0.25 0"/>
<feBlend mode="normal" in2="effect1_innerShadow_234_139" result="effect2_innerShadow_234_139"/>
</filter>
<filter id="filter1_ii_234_139" x="26" y="19" width="49.9999" height="53.9999" filterUnits="userSpaceOnUse" color-interpolation-filters="sRGB">
<feFlood flood-opacity="0" result="BackgroundImageFix"/>
<feBlend mode="normal" in="SourceGraphic" in2="BackgroundImageFix" result="shape"/>
<feColorMatrix in="SourceAlpha" type="matrix" values="0 0 0 0 0 0 0 0 0 0 0 0 0 0 0 0 0 0 127 0" result="hardAlpha"/>
<feOffset/>
<feGaussianBlur stdDeviation="2"/>
<feComposite in2="hardAlpha" operator="arithmetic" k2="-1" k3="1"/>
<feColorMatrix type="matrix" values="0 0 0 0 0 0 0 0 0 0 0 0 0 0 0 0 0 0 0.2 0"/>
<feBlend mode="normal" in2="shape" result="effect1_innerShadow_234_139"/>
<feColorMatrix in="SourceAlpha" type="matrix" values="0 0 0 0 0 0 0 0 0 0 0 0 0 0 0 0 0 0 127 0" result="hardAlpha"/>
<feOffset dy="4"/>
<feGaussianBlur stdDeviation="2"/>
<feComposite in2="hardAlpha" operator="arithmetic" k2="-1" k3="1"/>
<feColorMatrix type="matrix" values="0 0 0 0 1 0 0 0 0 1 0 0 0 0 1 0 0 0 0.45 0"/>
<feBlend mode="normal" in2="effect1_innerShadow_234_139" result="effect2_innerShadow_234_139"/>
</filter>
<filter id="filter2_f_234_139" x="11" y="5" width="89.9999" height="89.9999" filterUnits="userSpaceOnUse" color-interpolation-filters="sRGB">
<feFlood flood-opacity="0" result="BackgroundImageFix"/>
<feBlend mode="normal" in="SourceGraphic" in2="BackgroundImageFix" result="shape"/>
<feGaussianBlur stdDeviation="10" result="effect1_foregroundBlur_234_139"/>
</filter>
<filter id="filter3_ii_234_139" x="31" y="25" width="66.9999" height="66.9999" filterUnits="userSpaceOnUse" color-interpolation-filters="sRGB">
<feFlood flood-opacity="0" result="BackgroundImageFix"/>
<feBlend mode="normal" in="SourceGraphic" in2="BackgroundImageFix" result="shape"/>
<feColorMatrix in="SourceAlpha" type="matrix" values="0 0 0 0 0 0 0 0 0 0 0 0 0 0 0 0 0 0 127 0" result="hardAlpha"/>
<feOffset dx="17" dy="17"/>
<feGaussianBlur stdDeviation="17"/>
<feComposite in2="hardAlpha" operator="arithmetic" k2="-1" k3="1"/>
<feColorMatrix type="matrix" values="0 0 0 0 0 0 0 0 0 0 0 0 0 0 0 0 0 0 0.2 0"/>
<feBlend mode="normal" in2="shape" result="effect1_innerShadow_234_139"/>
<feColorMatrix in="SourceAlpha" type="matrix" values="0 0 0 0 0 0 0 0 0 0 0 0 0 0 0 0 0 0 127 0" result="hardAlpha"/>
<feOffset dx="12" dy="12"/>
<feGaussianBlur stdDeviation="10"/>
<feComposite in2="hardAlpha" operator="arithmetic" k2="-1" k3="1"/>
<feColorMatrix type="matrix" values="0 0 0 0 1 0 0 0 0 1 0 0 0 0 1 0 0 0 0.45 0"/>
<feBlend mode="normal" in2="effect1_innerShadow_234_139" result="effect2_innerShadow_234_139"/>
</filter>
<linearGradient id="paint0_linear_234_139" x1="56" y1="34.5" x2="34.5" y2="55.5" gradientUnits="userSpaceOnUse">
<stop stop-color="#03CE54"/>
<stop offset="1" stop-color="#5B74C5"/>
</linearGradient>
<linearGradient id="paint1_linear_234_139" x1="79" y1="28" x2="41" y2="75.5" gradientUnits="userSpaceOnUse">
<stop stop-color="#03CE54"/>
<stop offset="1" stop-color="#5B74C5"/>
</linearGradient>
</defs>
</svg>
