<svg width="82" height="82" viewBox="0 0 82 82" fill="none" xmlns="http://www.w3.org/2000/svg">
<g id="&#209;&#128;&#208;&#176;&#208;&#186;&#208;&#181;&#209;&#130;&#208;&#176;">
<g id="_x31_9_Rocket" filter="url(#filter0_f_234_153)">
<g id="Group">
<path id="Vector" d="M31.2948 55.6088C30.334 56.5695 27.005 57.4141 25.1685 57.8162C24.5831 57.9458 24.0603 57.423 24.1899 56.8376C24.5921 55.0011 25.4321 51.6721 26.3973 50.707C26.5805 50.5238 26.7771 50.3673 26.9827 50.2378L26.0577 49.3128C25.1684 49.5451 24.3284 50.0098 23.6313 50.7069C22.1255 52.2127 20.8073 57.423 20.1773 60.2917C19.9762 61.2123 20.794 62.03 21.7145 61.8289C24.5833 61.1944 29.789 59.8807 31.2948 58.3748C31.9919 57.6778 32.4566 56.8421 32.6979 55.9574L31.7684 55.0235C31.6344 55.2289 31.478 55.4256 31.2948 55.6088Z" fill="url(#paint0_linear_234_153)" fill-opacity="0.6"/>
<path id="Vector_2" d="M21.1827 45.4525C21.7145 45.9842 22.5858 45.9619 23.0907 45.4033L24.9183 43.3926L27.3938 43.3122C27.9882 40.8232 29.1544 38.1467 30.781 35.4745L25.115 35.4521C23.703 35.4477 22.4427 36.3414 21.987 37.6819L20.07 43.2986C19.9091 43.7723 20.0298 44.2996 20.3873 44.6526L21.1827 45.4525Z" fill="url(#paint1_linear_234_153)" fill-opacity="0.6"/>
<path id="Vector_3" d="M38.6945 54.6081L38.614 57.0836L36.5988 58.9156C36.0402 59.4205 36.0223 60.2874 36.5541 60.8191L37.3494 61.619C37.7069 61.972 38.2297 62.0927 38.7078 61.9318L44.3247 60.0193C45.6607 59.5635 46.5589 58.3034 46.5545 56.8869L46.5321 51.2209C43.8601 52.8475 41.1834 54.0093 38.6945 54.6081Z" fill="url(#paint2_linear_234_153)" fill-opacity="0.6"/>
<path id="Vector_4" d="M27.9374 46.5668C27.473 46.1023 26.72 46.1023 26.2555 46.5668C25.791 47.0313 25.791 47.7843 26.2555 48.2487L33.7553 55.7486C34.2198 56.2131 34.9728 56.2131 35.4373 55.7486C35.9018 55.2841 35.9018 54.5311 35.4373 54.0666L27.9374 46.5668Z" fill="url(#paint3_linear_234_153)" fill-opacity="0.6"/>
<path id="Vector_5" d="M46.7109 22.4799C43.5562 23.6729 40.3971 25.4425 37.7874 28.0565C32.0364 33.8074 28.4885 40.3627 27.9076 45.488C28.1533 45.5908 28.3768 45.7427 28.5689 45.9349L36.067 53.433C36.2636 53.6295 36.4111 53.8575 36.5138 54.0988C41.6347 53.5134 48.1989 49.9699 53.9497 44.219C56.5593 41.6049 58.3332 38.4502 59.5219 35.2866L59.4861 35.2732C49.6842 31.1956 47.3899 23.51 46.7109 22.4799ZM49.5886 38.343C47.9486 39.9829 45.2989 39.9829 43.659 38.343C42.0235 36.7075 42.0235 34.0533 43.659 32.4178C45.2989 30.7778 47.9487 30.7778 49.5886 32.4178C51.2241 34.0532 51.2241 36.7074 49.5886 38.343Z" fill="url(#paint4_linear_234_153)" fill-opacity="0.6"/>
<path id="Vector_6" d="M59.5677 20.0013C55.1633 20.1591 50.9315 20.9806 47.5515 22.1698C49.953 27.951 54.0445 32.0425 59.83 34.4482C61.0392 31.0107 61.851 26.7939 61.9985 22.432C62.0443 21.0709 60.9288 19.9555 59.5677 20.0013Z" fill="url(#paint5_linear_234_153)" fill-opacity="0.6"/>
</g>
</g>
<g id="_x31_9_Rocket_2" filter="url(#filter1_ii_234_153)">
<g id="Group_2">
<path id="Vector_7" d="M21.4456 46.3897C20.3019 47.5334 16.3391 48.5387 14.1528 49.0174C13.456 49.1716 12.8336 48.5493 12.9879 47.8525C13.4667 45.6663 14.4666 41.7034 15.6156 40.5544C15.8337 40.3364 16.0678 40.1501 16.3125 39.9959L15.2113 38.8948C14.1528 39.1713 13.1527 39.7245 12.323 40.5543C10.5304 42.3469 8.96124 48.5494 8.21124 51.9643C7.97188 53.0601 8.94532 54.0336 10.0411 53.7942C13.4562 53.0388 19.6532 51.4751 21.4457 49.6824C22.2755 48.8526 22.8287 47.8578 23.116 46.8046L22.0095 45.6929C21.8499 45.9375 21.6638 46.1716 21.4456 46.3897Z" fill="url(#paint6_linear_234_153)"/>
<path id="Vector_8" d="M9.40796 34.2989C10.041 34.9319 11.0782 34.9053 11.6793 34.2404L13.8548 31.8467L16.8017 31.751C17.5092 28.7881 18.8975 25.6019 20.8339 22.4209L14.0889 22.3942C12.4081 22.389 10.9079 23.4528 10.3654 25.0486L8.08335 31.7349C7.89185 32.2987 8.0355 32.9264 8.46109 33.3466L9.40796 34.2989Z" fill="url(#paint7_linear_234_153)"/>
<path id="Vector_9" d="M30.2544 45.1981L30.1586 48.145L27.7597 50.3258C27.0948 50.9269 27.0735 51.9588 27.7065 52.5919L28.6533 53.544C29.0789 53.9642 29.7011 54.1079 30.2703 53.9164L36.9567 51.6397C38.5471 51.0971 39.6164 49.597 39.6111 47.9109L39.5845 41.166C36.4037 43.1023 33.2173 44.4853 30.2544 45.1981Z" fill="url(#paint8_linear_234_153)"/>
<path id="Vector_10" d="M17.4491 35.6256C16.8961 35.0727 15.9997 35.0727 15.4468 35.6256C14.8939 36.1785 14.8939 37.0749 15.4468 37.6279L24.3747 46.5558C24.9277 47.1087 25.8241 47.1087 26.377 46.5558C26.9299 46.0029 26.9299 45.1065 26.377 44.5536L17.4491 35.6256Z" fill="url(#paint9_linear_234_153)"/>
<path id="Vector_11" d="M39.7973 6.95212C36.0418 8.37234 32.2812 10.4789 29.1746 13.5906C22.3285 20.4366 18.105 28.2401 17.4135 34.3414C17.7059 34.4638 17.9719 34.6446 18.2007 34.8734L27.1266 43.7993C27.3605 44.0332 27.5361 44.3046 27.6585 44.5918C33.7545 43.895 41.5686 39.6768 48.4145 32.8308C51.5209 29.719 53.6327 25.9635 55.0477 22.1975L55.0051 22.1815C43.3367 17.3275 40.6056 8.17839 39.7973 6.95212ZM43.2229 25.8358C41.2706 27.7881 38.1163 27.7881 36.1642 25.8358C34.2173 23.889 34.2173 20.7293 36.1642 18.7824C38.1164 16.8302 41.2707 16.8302 43.2229 18.7824C45.1699 20.7292 45.1699 23.8889 43.2229 25.8358Z" fill="url(#paint10_linear_234_153)"/>
<path id="Vector_12" d="M55.1022 4.00163C49.8591 4.18952 44.8214 5.16735 40.7979 6.58298C43.6566 13.4651 48.5273 18.3356 55.4144 21.1995C56.8538 17.1074 57.8202 12.0877 57.9958 6.89519C58.0503 5.27487 56.7224 3.94704 55.1022 4.00163Z" fill="url(#paint11_linear_234_153)"/>
</g>
</g>
</g>
<defs>
<filter id="filter0_f_234_153" x="0" y="-5.34058e-05" width="82" height="82.002" filterUnits="userSpaceOnUse" color-interpolation-filters="sRGB">
<feFlood flood-opacity="0" result="BackgroundImageFix"/>
<feBlend mode="normal" in="SourceGraphic" in2="BackgroundImageFix" result="shape"/>
<feGaussianBlur stdDeviation="10" result="effect1_foregroundBlur_234_153"/>
</filter>
<filter id="filter1_ii_234_153" x="8" y="4" width="53.9976" height="53.9999" filterUnits="userSpaceOnUse" color-interpolation-filters="sRGB">
<feFlood flood-opacity="0" result="BackgroundImageFix"/>
<feBlend mode="normal" in="SourceGraphic" in2="BackgroundImageFix" result="shape"/>
<feColorMatrix in="SourceAlpha" type="matrix" values="0 0 0 0 0 0 0 0 0 0 0 0 0 0 0 0 0 0 127 0" result="hardAlpha"/>
<feOffset dy="4"/>
<feGaussianBlur stdDeviation="2"/>
<feComposite in2="hardAlpha" operator="arithmetic" k2="-1" k3="1"/>
<feColorMatrix type="matrix" values="0 0 0 0 1 0 0 0 0 1 0 0 0 0 1 0 0 0 0.45 0"/>
<feBlend mode="normal" in2="shape" result="effect1_innerShadow_234_153"/>
<feColorMatrix in="SourceAlpha" type="matrix" values="0 0 0 0 0 0 0 0 0 0 0 0 0 0 0 0 0 0 127 0" result="hardAlpha"/>
<feOffset dx="4"/>
<feGaussianBlur stdDeviation="2"/>
<feComposite in2="hardAlpha" operator="arithmetic" k2="-1" k3="1"/>
<feColorMatrix type="matrix" values="0 0 0 0 0 0 0 0 0 0 0 0 0 0 0 0 0 0 0.25 0"/>
<feBlend mode="normal" in2="effect1_innerShadow_234_153" result="effect2_innerShadow_234_153"/>
</filter>
<linearGradient id="paint0_linear_234_153" x1="31.9454" y1="49.9401" x2="22.6614" y2="61.1105" gradientUnits="userSpaceOnUse">
<stop stop-color="#008F39"/>
<stop offset="1" stop-color="#5B74C5"/>
</linearGradient>
<linearGradient id="paint1_linear_234_153" x1="30.1346" y1="35.9714" x2="22.5071" y2="45.4951" gradientUnits="userSpaceOnUse">
<stop stop-color="#008F39"/>
<stop offset="1" stop-color="#5B74C5"/>
</linearGradient>
<linearGradient id="paint2_linear_234_153" x1="45.9317" y1="51.76" x2="37.9048" y2="61.0617" gradientUnits="userSpaceOnUse">
<stop stop-color="#008F39"/>
<stop offset="1" stop-color="#5B74C5"/>
</linearGradient>
<linearGradient id="paint3_linear_234_153" x1="35.1934" y1="46.7123" x2="27.8833" y2="55.5046" gradientUnits="userSpaceOnUse">
<stop stop-color="#008F39"/>
<stop offset="1" stop-color="#5B74C5"/>
</linearGradient>
<linearGradient id="paint4_linear_234_153" x1="57.6265" y1="24.0608" x2="34.228" y2="52.1994" gradientUnits="userSpaceOnUse">
<stop stop-color="#008F39"/>
<stop offset="1" stop-color="#5B74C5"/>
</linearGradient>
<linearGradient id="paint5_linear_234_153" x1="61.1336" y1="20.7224" x2="50.442" y2="33.5819" gradientUnits="userSpaceOnUse">
<stop stop-color="#008F39"/>
<stop offset="1" stop-color="#5B74C5"/>
</linearGradient>
<linearGradient id="paint6_linear_234_153" x1="18.4847" y1="43.8237" x2="10.718" y2="51.7429" gradientUnits="userSpaceOnUse">
<stop stop-color="#03CE54"/>
<stop offset="1" stop-color="#5B74C5"/>
</linearGradient>
<linearGradient id="paint7_linear_234_153" x1="16.8558" y1="26.4739" x2="10.4363" y2="33.2666" gradientUnits="userSpaceOnUse">
<stop stop-color="#03CE54"/>
<stop offset="1" stop-color="#5B74C5"/>
</linearGradient>
<linearGradient id="paint8_linear_234_153" x1="35.7783" y1="45.4012" x2="29.1046" y2="51.9551" gradientUnits="userSpaceOnUse">
<stop stop-color="#03CE54"/>
<stop offset="1" stop-color="#5B74C5"/>
</linearGradient>
<linearGradient id="paint9_linear_234_153" x1="23.1466" y1="39.0916" x2="17.0316" y2="45.3245" gradientUnits="userSpaceOnUse">
<stop stop-color="#03CE54"/>
<stop offset="1" stop-color="#5B74C5"/>
</linearGradient>
<linearGradient id="paint10_linear_234_153" x1="43.3824" y1="19.3733" x2="23.8096" y2="39.3204" gradientUnits="userSpaceOnUse">
<stop stop-color="#03CE54"/>
<stop offset="1" stop-color="#5B74C5"/>
</linearGradient>
<linearGradient id="paint11_linear_234_153" x1="52.6662" y1="9.67586" x2="43.7224" y2="18.7921" gradientUnits="userSpaceOnUse">
<stop stop-color="#03CE54"/>
<stop offset="1" stop-color="#5B74C5"/>
</linearGradient>
</defs>
</svg>
