<svg width="90" height="90" viewBox="0 0 90 90" fill="none" xmlns="http://www.w3.org/2000/svg">
<g id="&#208;&#151;&#208;&#176;&#208;&#191;&#209;&#135;&#208;&#176;&#209;&#129;&#209;&#130;&#208;&#184;">
<g id="Group 140" filter="url(#filter0_f_234_175)">
<path id="Vector" d="M35.8188 59.2661C38.6756 59.2661 40.9914 56.9502 40.9914 54.0935C40.9914 51.2367 38.6756 48.9209 35.8188 48.9209C32.9621 48.9209 30.6462 51.2367 30.6462 54.0935C30.6462 56.9502 32.9621 59.2661 35.8188 59.2661Z" fill="url(#paint0_linear_234_175)" fill-opacity="0.6"/>
<path id="Vector_2" d="M51.3931 50.8679H47.9616C47.6205 50.8679 47.3108 50.667 47.1729 50.3541C47.0891 50.1614 46.6705 49.0162 46.6036 48.9106C46.3915 48.5703 46.4423 48.1283 46.7253 47.8445L49.1721 45.3977C49.2278 45.342 49.2665 45.2122 49.1955 45.1469L44.8431 40.7654C44.7874 40.7098 44.6592 40.6743 44.5947 40.7445L42.1262 43.2138C41.8423 43.4977 41.4012 43.5477 41.0592 43.3356C40.9318 43.2558 40.0036 42.8759 39.756 42.8138C39.3721 42.7179 39.1028 42.3735 39.1028 41.9775V38.5461C39.1028 38.4824 39.0818 38.334 38.8907 38.334H32.7439C32.6802 38.334 32.5318 38.355 32.5318 38.5461V41.9775C32.5318 42.3179 32.3318 42.6267 32.0197 42.7654C31.8262 42.8517 30.6802 43.2703 30.5753 43.3356C30.2342 43.5485 29.7923 43.4977 29.5084 43.2138L27.0616 40.767C27.0044 40.7106 26.8794 40.6703 26.8108 40.7445L22.4326 45.1235C22.377 45.1791 22.3399 45.3098 22.41 45.3751L24.8802 47.8437C25.1649 48.1275 25.2141 48.5711 25.0003 48.9114C24.9205 49.0388 24.5415 49.9662 24.4794 50.2138C24.3834 50.5977 24.0391 50.8662 23.6431 50.8662H20.2133C20.1503 50.8662 20.002 50.8872 20.002 51.0783V57.255C19.9891 57.38 20.0399 57.4501 20.1544 57.467H23.585C23.9253 57.467 24.2342 57.667 24.3729 57.9783C24.46 58.1735 24.8374 59.255 24.9423 59.4219C25.1544 59.759 25.1076 60.1969 24.8294 60.4824L22.4415 62.9291C22.3842 62.9864 22.3358 63.117 22.4108 63.1872L26.7899 67.5654C26.8479 67.6227 26.9721 67.6606 27.0407 67.588L29.5092 65.1187C29.6762 64.9525 29.8963 64.8662 30.1189 64.8662C30.2762 64.8662 31.631 65.4566 31.8794 65.5187C32.2633 65.6138 32.5326 65.959 32.5326 66.355V69.7864C32.5326 69.8501 32.5536 69.9985 32.7447 69.9985H38.9213C38.9842 69.9985 39.1326 69.9775 39.1326 69.7864V66.355C39.1326 66.0138 39.3334 65.705 39.6455 65.567C39.8391 65.4808 40.9165 65.1058 41.0891 64.9977C41.4286 64.7848 41.8721 64.8356 42.156 65.1187L44.6036 67.5654C44.6616 67.6227 44.7858 67.6606 44.8544 67.588L49.2318 63.209C49.2874 63.1533 49.3245 63.0235 49.2544 62.9582L46.785 60.4888C46.5012 60.205 46.4512 59.763 46.6633 59.4227C46.7447 59.2937 47.1221 58.3687 47.185 58.1179C47.281 57.7348 47.6253 57.4654 48.0213 57.4654H51.4528C51.5165 57.4654 51.6649 57.4445 51.6649 57.2533V51.1558C51.6286 51.0074 51.5302 50.8679 51.3931 50.8679ZM35.8189 60.9904C32.0165 60.9904 28.9221 57.8969 28.9221 54.0937C28.9221 50.2904 32.0157 47.1969 35.8189 47.1969C39.6221 47.1969 42.7157 50.2904 42.7157 54.0937C42.7157 57.8969 39.6213 60.9904 35.8189 60.9904Z" fill="url(#paint1_linear_234_175)" fill-opacity="0.6"/>
<path id="Vector_3" d="M59.7375 33.6614C61.6419 33.6614 63.1858 32.1175 63.1858 30.213C63.1858 28.3085 61.6419 26.7646 59.7375 26.7646C57.833 26.7646 56.2891 28.3085 56.2891 30.213C56.2891 32.1175 57.833 33.6614 59.7375 33.6614Z" fill="url(#paint2_linear_234_175)" fill-opacity="0.6"/>
<path id="Vector_4" d="M67.8205 28.3508C67.4802 28.3508 67.1721 28.1508 67.0334 27.8403C66.9705 27.6992 66.7076 26.9685 66.6713 26.9113C66.4592 26.571 66.51 26.129 66.7931 25.8452L68.3108 24.3258L65.652 21.6484L64.1342 23.1669C63.8495 23.4508 63.4068 23.5 63.0665 23.2879C62.9947 23.2427 62.485 23.0266 62.2826 22.9766C61.8979 22.8815 61.6286 22.5363 61.6286 22.1403V20H57.8253V22.1403C57.8253 22.4806 57.6253 22.7887 57.3141 22.9282C57.1737 22.9903 56.4431 23.2532 56.3874 23.2887C56.0479 23.5008 55.6044 23.4516 55.3205 23.1677L53.8028 21.6492L51.1245 24.3282L52.6423 25.846C52.9261 26.1298 52.9761 26.5718 52.7641 26.9121C52.7189 26.9847 52.5028 27.4935 52.4503 27.7016C52.3536 28.0839 52.0092 28.3516 51.6149 28.3516H49.4753V32.175H51.5761C51.9165 32.175 52.2245 32.375 52.3632 32.6855C52.4261 32.8266 52.6552 33.5032 52.7253 33.6145C52.9358 33.9516 52.8891 34.3887 52.6108 34.6734L51.1237 36.1984L53.8036 38.8774L55.3205 37.3589C55.6044 37.0758 56.0479 37.025 56.3866 37.2371C56.4584 37.2815 56.9689 37.4984 57.1729 37.5492C57.5568 37.6452 57.8261 37.9895 57.8261 38.3855V40.5258H61.6495V38.3855C61.6495 38.0452 61.8495 37.7371 62.1608 37.5976C62.3011 37.5355 62.9778 37.3056 63.0891 37.2363C63.4294 37.0242 63.8721 37.075 64.1552 37.3581L65.6729 38.8766L68.3512 36.1976L66.8334 34.6798C66.5495 34.396 66.4995 33.954 66.7116 33.6137C66.7568 33.5411 66.9745 33.0306 67.0237 32.829C67.1197 32.4444 67.4649 32.175 67.8608 32.175H69.9995V28.3516H67.8205V28.3508ZM59.7374 35.3855C56.885 35.3855 54.5649 33.0653 54.5649 30.2129C54.5649 27.3605 56.885 25.0403 59.7374 25.0403C62.5899 25.0403 64.91 27.3605 64.91 30.2129C64.91 33.0653 62.5899 35.3855 59.7374 35.3855Z" fill="url(#paint3_linear_234_175)" fill-opacity="0.6"/>
</g>
<g id="Group 139" filter="url(#filter1_ii_234_175)">
<path id="Vector_5" d="M28.8188 55.2661C31.6756 55.2661 33.9914 52.9502 33.9914 50.0935C33.9914 47.2367 31.6756 44.9209 28.8188 44.9209C25.9621 44.9209 23.6462 47.2367 23.6462 50.0935C23.6462 52.9502 25.9621 55.2661 28.8188 55.2661Z" fill="url(#paint4_linear_234_175)"/>
<path id="Vector_6" d="M44.3931 46.8679H40.9616C40.6205 46.8679 40.3108 46.667 40.1729 46.3541C40.0891 46.1614 39.6705 45.0162 39.6036 44.9106C39.3915 44.5703 39.4423 44.1283 39.7253 43.8445L42.1721 41.3977C42.2278 41.342 42.2665 41.2122 42.1955 41.1469L37.8431 36.7654C37.7874 36.7098 37.6592 36.6743 37.5947 36.7445L35.1262 39.2138C34.8423 39.4977 34.4012 39.5477 34.0592 39.3356C33.9318 39.2558 33.0036 38.8759 32.756 38.8138C32.3721 38.7179 32.1028 38.3735 32.1028 37.9775V34.5461C32.1028 34.4824 32.0818 34.334 31.8907 34.334H25.7439C25.6802 34.334 25.5318 34.355 25.5318 34.5461V37.9775C25.5318 38.3179 25.3318 38.6267 25.0197 38.7654C24.8262 38.8517 23.6802 39.2703 23.5753 39.3356C23.2342 39.5485 22.7923 39.4977 22.5084 39.2138L20.0616 36.767C20.0044 36.7106 19.8794 36.6703 19.8108 36.7445L15.4326 41.1235C15.377 41.1791 15.3399 41.3098 15.41 41.3751L17.8802 43.8437C18.1649 44.1275 18.2141 44.5711 18.0003 44.9114C17.9205 45.0388 17.5415 45.9662 17.4794 46.2138C17.3834 46.5977 17.0391 46.8662 16.6431 46.8662H13.2133C13.1503 46.8662 13.002 46.8872 13.002 47.0783V53.255C12.9891 53.38 13.0399 53.4501 13.1544 53.467H16.585C16.9253 53.467 17.2342 53.667 17.3729 53.9783C17.46 54.1735 17.8374 55.255 17.9423 55.4219C18.1544 55.759 18.1076 56.1969 17.8294 56.4824L15.4415 58.9291C15.3842 58.9864 15.3358 59.117 15.4108 59.1872L19.7899 63.5654C19.8479 63.6227 19.9721 63.6606 20.0407 63.588L22.5092 61.1187C22.6762 60.9525 22.8963 60.8662 23.1189 60.8662C23.2762 60.8662 24.631 61.4566 24.8794 61.5187C25.2633 61.6138 25.5326 61.959 25.5326 62.355V65.7864C25.5326 65.8501 25.5536 65.9985 25.7447 65.9985H31.9213C31.9842 65.9985 32.1326 65.9775 32.1326 65.7864V62.355C32.1326 62.0138 32.3334 61.705 32.6455 61.567C32.8391 61.4808 33.9165 61.1058 34.0891 60.9977C34.4286 60.7848 34.8721 60.8356 35.156 61.1187L37.6036 63.5654C37.6616 63.6227 37.7858 63.6606 37.8544 63.588L42.2318 59.209C42.2874 59.1533 42.3245 59.0235 42.2544 58.9582L39.785 56.4888C39.5012 56.205 39.4512 55.763 39.6633 55.4227C39.7447 55.2937 40.1221 54.3687 40.185 54.1179C40.281 53.7348 40.6253 53.4654 41.0213 53.4654H44.4528C44.5165 53.4654 44.6649 53.4445 44.6649 53.2533V47.1558C44.6286 47.0074 44.5302 46.8679 44.3931 46.8679ZM28.8189 56.9904C25.0165 56.9904 21.9221 53.8969 21.9221 50.0937C21.9221 46.2904 25.0157 43.1969 28.8189 43.1969C32.6221 43.1969 35.7157 46.2904 35.7157 50.0937C35.7157 53.8969 32.6213 56.9904 28.8189 56.9904Z" fill="url(#paint5_linear_234_175)"/>
<path id="Vector_7" d="M52.7375 29.6614C54.6419 29.6614 56.1858 28.1175 56.1858 26.213C56.1858 24.3085 54.6419 22.7646 52.7375 22.7646C50.833 22.7646 49.2891 24.3085 49.2891 26.213C49.2891 28.1175 50.833 29.6614 52.7375 29.6614Z" fill="url(#paint6_linear_234_175)"/>
<path id="Vector_8" d="M60.8205 24.3508C60.4802 24.3508 60.1721 24.1508 60.0334 23.8403C59.9705 23.6992 59.7076 22.9685 59.6713 22.9113C59.4592 22.571 59.51 22.129 59.7931 21.8452L61.3108 20.3258L58.652 17.6484L57.1342 19.1669C56.8495 19.4508 56.4068 19.5 56.0665 19.2879C55.9947 19.2427 55.485 19.0266 55.2826 18.9766C54.8979 18.8815 54.6286 18.5363 54.6286 18.1403V16H50.8253V18.1403C50.8253 18.4806 50.6253 18.7887 50.3141 18.9282C50.1737 18.9903 49.4431 19.2532 49.3874 19.2887C49.0479 19.5008 48.6044 19.4516 48.3205 19.1677L46.8028 17.6492L44.1245 20.3282L45.6423 21.846C45.9261 22.1298 45.9761 22.5718 45.7641 22.9121C45.7189 22.9847 45.5028 23.4935 45.4503 23.7016C45.3536 24.0839 45.0092 24.3516 44.6149 24.3516H42.4753V28.175H44.5761C44.9165 28.175 45.2245 28.375 45.3632 28.6855C45.4261 28.8266 45.6552 29.5032 45.7253 29.6145C45.9358 29.9516 45.8891 30.3887 45.6108 30.6734L44.1237 32.1984L46.8036 34.8774L48.3205 33.3589C48.6044 33.0758 49.0479 33.025 49.3866 33.2371C49.4584 33.2815 49.9689 33.4984 50.1729 33.5492C50.5568 33.6452 50.8261 33.9895 50.8261 34.3855V36.5258H54.6495V34.3855C54.6495 34.0452 54.8495 33.7371 55.1608 33.5976C55.3011 33.5355 55.9778 33.3056 56.0891 33.2363C56.4294 33.0242 56.8721 33.075 57.1552 33.3581L58.6729 34.8766L61.3512 32.1976L59.8334 30.6798C59.5495 30.396 59.4995 29.954 59.7116 29.6137C59.7568 29.5411 59.9745 29.0306 60.0237 28.829C60.1197 28.4444 60.4649 28.175 60.8608 28.175H62.9995V24.3516H60.8205V24.3508ZM52.7374 31.3855C49.885 31.3855 47.5649 29.0653 47.5649 26.2129C47.5649 23.3605 49.885 21.0403 52.7374 21.0403C55.5899 21.0403 57.91 23.3605 57.91 26.2129C57.91 29.0653 55.5899 31.3855 52.7374 31.3855Z" fill="url(#paint7_linear_234_175)"/>
</g>
</g>
<defs>
<filter id="filter0_f_234_175" x="0" y="0" width="89.9995" height="89.9985" filterUnits="userSpaceOnUse" color-interpolation-filters="sRGB">
<feFlood flood-opacity="0" result="BackgroundImageFix"/>
<feBlend mode="normal" in="SourceGraphic" in2="BackgroundImageFix" result="shape"/>
<feGaussianBlur stdDeviation="10" result="effect1_foregroundBlur_234_175"/>
</filter>
<filter id="filter1_ii_234_175" x="13" y="16" width="53.9995" height="53.9985" filterUnits="userSpaceOnUse" color-interpolation-filters="sRGB">
<feFlood flood-opacity="0" result="BackgroundImageFix"/>
<feBlend mode="normal" in="SourceGraphic" in2="BackgroundImageFix" result="shape"/>
<feColorMatrix in="SourceAlpha" type="matrix" values="0 0 0 0 0 0 0 0 0 0 0 0 0 0 0 0 0 0 127 0" result="hardAlpha"/>
<feOffset dx="4"/>
<feGaussianBlur stdDeviation="2"/>
<feComposite in2="hardAlpha" operator="arithmetic" k2="-1" k3="1"/>
<feColorMatrix type="matrix" values="0 0 0 0 0 0 0 0 0 0 0 0 0 0 0 0 0 0 0.25 0"/>
<feBlend mode="normal" in2="shape" result="effect1_innerShadow_234_175"/>
<feColorMatrix in="SourceAlpha" type="matrix" values="0 0 0 0 0 0 0 0 0 0 0 0 0 0 0 0 0 0 127 0" result="hardAlpha"/>
<feOffset dy="4"/>
<feGaussianBlur stdDeviation="2"/>
<feComposite in2="hardAlpha" operator="arithmetic" k2="-1" k3="1"/>
<feColorMatrix type="matrix" values="0 0 0 0 1 0 0 0 0 1 0 0 0 0 1 0 0 0 0.45 0"/>
<feBlend mode="normal" in2="effect1_innerShadow_234_175" result="effect2_innerShadow_234_175"/>
</filter>
<linearGradient id="paint0_linear_234_175" x1="39.2328" y1="51.6107" x2="33.0255" y2="59.6801" gradientUnits="userSpaceOnUse">
<stop stop-color="#03CE54"/>
<stop offset="1" stop-color="#5B74C5"/>
</linearGradient>
<linearGradient id="paint1_linear_234_175" x1="46.2821" y1="46.567" x2="27.2828" y2="71.2659" gradientUnits="userSpaceOnUse">
<stop stop-color="#03CE54"/>
<stop offset="1" stop-color="#5B74C5"/>
</linearGradient>
<linearGradient id="paint2_linear_234_175" x1="62.0134" y1="28.5579" x2="57.8752" y2="33.9374" gradientUnits="userSpaceOnUse">
<stop stop-color="#03CE54"/>
<stop offset="1" stop-color="#5B74C5"/>
</linearGradient>
<linearGradient id="paint3_linear_234_175" x1="66.5106" y1="25.3369" x2="54.1944" y2="41.3463" gradientUnits="userSpaceOnUse">
<stop stop-color="#03CE54"/>
<stop offset="1" stop-color="#5B74C5"/>
</linearGradient>
<linearGradient id="paint4_linear_234_175" x1="32.2328" y1="47.6107" x2="26.0255" y2="55.6801" gradientUnits="userSpaceOnUse">
<stop stop-color="#03CE54"/>
<stop offset="1" stop-color="#5B74C5"/>
</linearGradient>
<linearGradient id="paint5_linear_234_175" x1="39.2821" y1="42.567" x2="20.2828" y2="67.2659" gradientUnits="userSpaceOnUse">
<stop stop-color="#03CE54"/>
<stop offset="1" stop-color="#5B74C5"/>
</linearGradient>
<linearGradient id="paint6_linear_234_175" x1="55.0134" y1="24.5579" x2="50.8752" y2="29.9374" gradientUnits="userSpaceOnUse">
<stop stop-color="#03CE54"/>
<stop offset="1" stop-color="#5B74C5"/>
</linearGradient>
<linearGradient id="paint7_linear_234_175" x1="59.5106" y1="21.3369" x2="47.1944" y2="37.3463" gradientUnits="userSpaceOnUse">
<stop stop-color="#03CE54"/>
<stop offset="1" stop-color="#5B74C5"/>
</linearGradient>
</defs>
</svg>
