<svg width="102" height="75" viewBox="0 0 102 75" fill="none" xmlns="http://www.w3.org/2000/svg">
<g id="&#208;&#173;&#208;&#178;&#208;&#176;&#208;&#186;&#209;&#131;&#208;&#176;&#209;&#130;&#208;&#190;&#209;&#128; ">
<g id="&#208;&#173;&#208;&#178;&#208;&#176;&#208;&#186;&#209;&#131;&#208;&#176;&#209;&#130;&#208;&#190;&#209;&#128;" filter="url(#filter0_f_234_186)">
<path id="Vector" d="M36.6014 46.7508C35.8083 46.7505 35.0329 46.9854 34.3734 47.4257C33.7138 47.8661 33.1997 48.4922 32.896 49.2248C32.5923 49.9575 32.5127 50.7637 32.6672 51.5416C32.8217 52.3194 33.2035 53.034 33.7642 53.5949C34.3249 54.1558 35.0393 54.5378 35.8171 54.6926C36.595 54.8474 37.4012 54.7681 38.1339 54.4646C38.8667 54.1612 39.4929 53.6473 39.9336 52.9879C40.3742 52.3284 40.6093 51.5532 40.6093 50.7601C40.608 49.6974 40.1853 48.6786 39.434 47.9271C38.6827 47.1755 37.6641 46.7525 36.6014 46.7508Z" fill="url(#paint0_linear_234_186)" fill-opacity="0.6"/>
<path id="Vector_2" d="M35.0015 42.0365H41.4852C40.5182 38.8329 35.9668 38.8344 35.0015 42.0365Z" fill="url(#paint1_linear_234_186)" fill-opacity="0.6"/>
<path id="Vector_3" d="M47.6123 42.0369H54.1934C53.2203 38.7664 48.5824 38.7762 47.6123 42.0369Z" fill="url(#paint2_linear_234_186)" fill-opacity="0.6"/>
<path id="Vector_4" d="M73.7247 46.7508C72.9317 46.7508 72.1565 46.9859 71.4971 47.4265C70.8378 47.8671 70.3239 48.4933 70.0204 49.2259C69.7169 49.9586 69.6375 50.7648 69.7923 51.5425C69.947 52.3203 70.3289 53.0347 70.8896 53.5954C71.4504 54.1562 72.1648 54.538 72.9426 54.6927C73.7204 54.8474 74.5265 54.768 75.2592 54.4645C75.9918 54.161 76.618 53.6471 77.0585 52.9877C77.4991 52.3283 77.7342 51.5531 77.7342 50.7601C77.7328 49.6971 77.31 48.6781 76.5583 47.9265C75.8067 47.1749 74.7877 46.7521 73.7247 46.7508Z" fill="url(#paint3_linear_234_186)" fill-opacity="0.6"/>
<path id="Vector_5" d="M68.6901 36.3491H79.0319L76.7923 30.6743C76.1219 28.9577 74.9475 27.4843 73.4238 26.4478C71.9001 25.4113 70.0983 24.8602 68.2555 24.8671H65.5255V33.1839C65.5263 34.023 65.8599 34.8276 66.4532 35.421C67.0465 36.0144 67.851 36.3482 68.6901 36.3491Z" fill="url(#paint4_linear_234_186)" fill-opacity="0.6"/>
<path id="Vector_6" d="M81.8453 43.4758L79.8024 38.3025H68.6906C67.3338 38.3006 66.0331 37.7608 65.0736 36.8014C64.1142 35.842 63.5744 34.5412 63.5726 33.1844V24.8671H58.2491C57.7297 24.8679 57.2318 25.0747 56.8647 25.4421C56.4976 25.8096 56.2912 26.3076 56.2907 26.827V43.9903H26.7222C26.4587 43.9903 26.5382 43.8404 26.5382 49.5981C26.5382 49.6471 26.5576 49.6941 26.592 49.7289C26.6265 49.7637 26.6732 49.7836 26.7222 49.7841H30.7202C30.9513 48.3911 31.6693 47.1253 32.7464 46.2122C33.8235 45.299 35.1897 44.7979 36.6017 44.7979C38.0138 44.7979 39.38 45.299 40.4571 46.2122C41.5341 47.1253 42.2521 48.3911 42.4832 49.7841H64.1191V39.8864H66.0721V49.7838H67.8448C68.0757 48.3909 68.7936 47.1252 69.8705 46.2122C70.9474 45.2991 72.3135 44.7979 73.7254 44.7979C75.1373 44.7979 76.5034 45.2991 77.5803 46.2122C78.6572 47.1252 79.3751 48.3909 79.606 49.7838H81.584C81.6927 49.7837 81.797 49.7404 81.8739 49.6635C81.9508 49.5865 81.994 49.4823 81.9941 49.3735C81.9945 43.8013 82.0451 43.9783 81.8453 43.4758ZM71.1324 41.7893H67.8062V39.8363H71.132L71.1324 41.7893Z" fill="url(#paint5_linear_234_186)" fill-opacity="0.6"/>
<path id="Vector_7" d="M27.6045 30.7326C27.5937 30.6048 27.5579 30.4804 27.499 30.3665C27.4401 30.2526 27.3593 30.1513 27.2613 30.0686C27.1633 29.9859 27.05 29.9233 26.9278 29.8843C26.8056 29.8454 26.6769 29.8309 26.5491 29.8417C26.4213 29.8525 26.2969 29.8884 26.183 29.9473C26.069 30.0061 25.9678 30.0869 25.8851 30.1849C25.8024 30.2829 25.7397 30.3962 25.7008 30.5184C25.6619 30.6406 25.6474 30.7693 25.6582 30.8971C25.6618 30.9396 25.6636 30.9817 25.6636 31.025C25.6635 31.3918 25.5546 31.7504 25.3507 32.0553C25.1468 32.3602 24.857 32.5979 24.5181 32.7381C24.1791 32.8784 23.8062 32.915 23.4464 32.8433C23.0867 32.7716 22.7562 32.5948 22.497 32.3353C22.2377 32.0758 22.0611 31.7453 21.9897 31.3855C21.9183 31.0257 21.9552 30.6528 22.0957 30.3139C22.2362 29.975 22.474 29.6855 22.7791 29.4818C23.0842 29.2781 23.4429 29.1695 23.8097 29.1696C23.9379 29.1696 24.0649 29.1444 24.1834 29.0953C24.3019 29.0462 24.4095 28.9743 24.5002 28.8836C24.5909 28.793 24.6628 28.6853 24.7119 28.5668C24.7609 28.4484 24.7862 28.3214 24.7862 28.1932C24.7862 28.1899 24.7862 28.1868 24.7862 28.1837V23.5156L38.5668 37.6845C39.7552 37.7582 40.8851 38.2263 41.7774 39.0148C42.6696 39.8033 43.2733 40.8671 43.4926 42.0374H45.6065C45.7638 41.1925 46.1204 40.3973 46.6468 39.7178C47.1731 39.0383 47.8539 38.4942 48.6326 38.1305L24.951 20.4862C23.9833 19.7112 22.7201 20.8447 23.2326 21.8475C23.1086 21.9379 23.0078 22.0564 22.9382 22.1932C22.8687 22.33 22.8324 22.4813 22.8324 22.6348V27.3439C22.1449 27.5262 21.5222 27.8974 21.0348 28.4154C20.5474 28.9334 20.2148 29.5775 20.0746 30.2749C19.9345 30.9722 19.9925 31.6948 20.2419 32.3609C20.4914 33.027 20.9224 33.6099 21.4861 34.0437C22.0499 34.4774 22.7238 34.7446 23.4316 34.8149C24.1393 34.8853 24.8527 34.7561 25.4908 34.4419C26.1289 34.1277 26.6663 33.6411 27.042 33.0372C27.4178 32.4333 27.617 31.7362 27.6169 31.025C27.6169 30.9269 27.6129 30.8312 27.6045 30.7326Z" fill="url(#paint6_linear_234_186)" fill-opacity="0.6"/>
</g>
<g id="&#208;&#173;&#208;&#178;&#208;&#176;&#208;&#186;&#209;&#131;&#208;&#176;&#209;&#130;&#208;&#190;&#209;&#128;_2" filter="url(#filter1_ii_234_186)">
<path id="Vector_8" d="M29.7446 37.9457C28.8491 37.9454 27.9737 38.2106 27.229 38.7078C26.4842 39.2051 25.9037 39.912 25.5608 40.7392C25.2179 41.5664 25.128 42.4767 25.3025 43.355C25.477 44.2333 25.908 45.0402 26.5411 45.6735C27.1742 46.3068 27.9809 46.7381 28.8591 46.9129C29.7373 47.0877 30.6477 46.9981 31.475 46.6555C32.3023 46.3129 33.0095 45.7326 33.507 44.988C34.0045 44.2435 34.27 43.3681 34.27 42.4727C34.2684 41.2728 33.7912 40.1225 32.9429 39.2739C32.0946 38.4253 30.9445 37.9477 29.7446 37.9457Z" fill="url(#paint7_linear_234_186)"/>
<path id="Vector_9" d="M27.9384 32.6226H35.2592C34.1673 29.0054 29.0283 29.0071 27.9384 32.6226Z" fill="url(#paint8_linear_234_186)"/>
<path id="Vector_10" d="M42.1772 32.6224H49.608C48.5093 28.9297 43.2726 28.9407 42.1772 32.6224Z" fill="url(#paint9_linear_234_186)"/>
<path id="Vector_11" d="M71.6611 37.9457C70.7657 37.9457 69.8904 38.2112 69.1459 38.7087C68.4014 39.2061 67.8211 39.9132 67.4785 40.7404C67.1359 41.5677 67.0462 42.4779 67.2209 43.3561C67.3956 44.2343 67.8268 45.041 68.4599 45.6741C69.0931 46.3072 69.8998 46.7384 70.778 46.913C71.6561 47.0877 72.5664 46.998 73.3936 46.6553C74.2209 46.3127 74.9279 45.7324 75.4253 44.9879C75.9227 44.2434 76.1882 43.3681 76.1882 42.4727C76.1867 41.2725 75.7092 40.1219 74.8605 39.2733C74.0118 38.4246 72.8612 37.9472 71.6611 37.9457Z" fill="url(#paint10_linear_234_186)"/>
<path id="Vector_12" d="M65.9764 26.201H77.6533L75.1246 19.7936C74.3676 17.8554 73.0417 16.1917 71.3212 15.0214C69.6008 13.8511 67.5664 13.2289 65.4856 13.2367H62.4032V22.6271C62.404 23.5746 62.7807 24.4831 63.4506 25.1531C64.1205 25.8231 65.0289 26.2 65.9764 26.201Z" fill="url(#paint11_linear_234_186)"/>
<path id="Vector_13" d="M80.8297 34.2479L78.5231 28.4066H65.9767C64.4447 28.4045 62.976 27.795 61.8928 26.7117C60.8095 25.6284 60.2 24.1598 60.1979 22.6278V13.2366H54.1872C53.6007 13.2375 53.0385 13.471 52.624 13.8859C52.2095 14.3008 51.9764 14.8631 51.9759 15.4496V34.8287H18.59C18.2924 34.8287 18.3822 34.6595 18.3822 41.1606C18.3822 41.2159 18.404 41.2689 18.4429 41.3083C18.4818 41.3476 18.5347 41.37 18.59 41.3706H23.1041C23.3651 39.7977 24.1758 38.3685 25.3919 37.3375C26.608 36.3065 28.1506 35.7406 29.745 35.7406C31.3393 35.7406 32.8819 36.3065 34.098 37.3375C35.3142 38.3685 36.1249 39.7977 36.3858 41.3706H60.815V30.195H63.0201V41.3702H65.0217C65.2824 39.7975 66.093 38.3684 67.3089 37.3375C68.5249 36.3065 70.0673 35.7407 71.6615 35.7407C73.2557 35.7407 74.7981 36.3065 76.0141 37.3375C77.23 38.3684 78.0406 39.7975 78.3014 41.3702H80.5347C80.6575 41.3701 80.7752 41.3212 80.862 41.2344C80.9488 41.1475 80.9976 41.0298 80.9977 40.907C80.9983 34.6154 81.0553 34.8152 80.8297 34.2479ZM68.7338 32.3436H64.9781V30.1385H68.7333L68.7338 32.3436Z" fill="url(#paint12_linear_234_186)"/>
<path id="Vector_14" d="M19.5863 19.8592C19.5741 19.7149 19.5336 19.5744 19.4671 19.4457C19.4007 19.3171 19.3095 19.2028 19.1988 19.1094C19.0882 19.016 18.9602 18.9453 18.8222 18.9013C18.6842 18.8574 18.539 18.841 18.3947 18.8532C18.2504 18.8654 18.1099 18.9059 17.9812 18.9724C17.8526 19.0389 17.7383 19.13 17.6449 19.2407C17.5515 19.3513 17.4808 19.4793 17.4368 19.6173C17.3929 19.7553 17.3765 19.9006 17.3887 20.0448C17.3927 20.0928 17.3948 20.1404 17.3948 20.1892C17.3947 20.6034 17.2717 21.0083 17.0415 21.3526C16.8113 21.6969 16.4841 21.9652 16.1014 22.1236C15.7187 22.2819 15.2976 22.3233 14.8914 22.2423C14.4852 22.1614 14.1121 21.9618 13.8193 21.6688C13.5266 21.3758 13.3272 21.0026 13.2466 20.5963C13.166 20.19 13.2076 19.769 13.3662 19.3864C13.5249 19.0038 13.7935 18.6768 14.1379 18.4468C14.4824 18.2169 14.8874 18.0942 15.3016 18.0944C15.4463 18.0944 15.5897 18.0659 15.7235 18.0104C15.8573 17.955 15.9788 17.8738 16.0812 17.7714C16.1836 17.6691 16.2648 17.5475 16.3202 17.4137C16.3756 17.28 16.4041 17.1366 16.4041 16.9918C16.4041 16.9881 16.4041 16.9846 16.4041 16.9811V11.7104L31.9638 27.7085C33.3057 27.7917 34.5815 28.3204 35.589 29.2106C36.5964 30.1009 37.278 31.302 37.5256 32.6235H39.9124C40.0901 31.6694 40.4927 30.7715 41.087 30.0043C41.6813 29.2371 42.45 28.6227 43.3293 28.2122L16.5901 8.28983C15.4976 7.41478 14.0712 8.69463 14.65 9.82693C14.51 9.92903 14.3961 10.0628 14.3175 10.2172C14.239 10.3717 14.1981 10.5425 14.1981 10.7158V16.0329C13.4218 16.2388 12.7187 16.6578 12.1684 17.2427C11.618 17.8276 11.2425 18.5549 11.0843 19.3423C10.9261 20.1297 10.9915 20.9456 11.2732 21.6977C11.5548 22.4498 12.0415 23.1079 12.678 23.5976C13.3145 24.0874 14.0754 24.389 14.8746 24.4685C15.6738 24.548 16.4792 24.4021 17.1997 24.0473C17.9202 23.6926 18.5269 23.1431 18.9512 22.4613C19.3755 21.7794 19.6004 20.9923 19.6003 20.1892C19.6003 20.0785 19.5958 19.9705 19.5863 19.8592Z" fill="url(#paint13_linear_234_186)"/>
</g>
</g>
<defs>
<filter id="filter0_f_234_186" x="0" y="0.229492" width="102" height="74.5403" filterUnits="userSpaceOnUse" color-interpolation-filters="sRGB">
<feFlood flood-opacity="0" result="BackgroundImageFix"/>
<feBlend mode="normal" in="SourceGraphic" in2="BackgroundImageFix" result="shape"/>
<feGaussianBlur stdDeviation="10" result="effect1_foregroundBlur_234_186"/>
</filter>
<filter id="filter1_ii_234_186" x="11" y="8" width="74.0045" height="43" filterUnits="userSpaceOnUse" color-interpolation-filters="sRGB">
<feFlood flood-opacity="0" result="BackgroundImageFix"/>
<feBlend mode="normal" in="SourceGraphic" in2="BackgroundImageFix" result="shape"/>
<feColorMatrix in="SourceAlpha" type="matrix" values="0 0 0 0 0 0 0 0 0 0 0 0 0 0 0 0 0 0 127 0" result="hardAlpha"/>
<feOffset dy="4"/>
<feGaussianBlur stdDeviation="2"/>
<feComposite in2="hardAlpha" operator="arithmetic" k2="-1" k3="1"/>
<feColorMatrix type="matrix" values="0 0 0 0 1 0 0 0 0 1 0 0 0 0 1 0 0 0 0.45 0"/>
<feBlend mode="normal" in2="shape" result="effect1_innerShadow_234_186"/>
<feColorMatrix in="SourceAlpha" type="matrix" values="0 0 0 0 0 0 0 0 0 0 0 0 0 0 0 0 0 0 127 0" result="hardAlpha"/>
<feOffset dx="4"/>
<feGaussianBlur stdDeviation="2"/>
<feComposite in2="hardAlpha" operator="arithmetic" k2="-1" k3="1"/>
<feColorMatrix type="matrix" values="0 0 0 0 0 0 0 0 0 0 0 0 0 0 0 0 0 0 0.25 0"/>
<feBlend mode="normal" in2="effect1_innerShadow_234_186" result="effect2_innerShadow_234_186"/>
</filter>
<linearGradient id="paint0_linear_234_186" x1="39.0624" y1="47.676" x2="32.75" y2="50.4546" gradientUnits="userSpaceOnUse">
<stop stop-color="#03CE54"/>
<stop offset="1" stop-color="#5B74C5"/>
</linearGradient>
<linearGradient id="paint1_linear_234_186" x1="40.2344" y1="39.9115" x2="37.708" y2="42.9133" gradientUnits="userSpaceOnUse">
<stop stop-color="#03CE54"/>
<stop offset="1" stop-color="#5B74C5"/>
</linearGradient>
<linearGradient id="paint2_linear_234_186" x1="52.9238" y1="39.8703" x2="50.3459" y2="42.9194" gradientUnits="userSpaceOnUse">
<stop stop-color="#03CE54"/>
<stop offset="1" stop-color="#5B74C5"/>
</linearGradient>
<linearGradient id="paint3_linear_234_186" x1="76.1873" y1="47.676" x2="69.8748" y2="50.4546" gradientUnits="userSpaceOnUse">
<stop stop-color="#03CE54"/>
<stop offset="1" stop-color="#5B74C5"/>
</linearGradient>
<linearGradient id="paint4_linear_234_186" x1="76.4264" y1="26.1919" x2="66.4177" y2="31.3743" gradientUnits="userSpaceOnUse">
<stop stop-color="#03CE54"/>
<stop offset="1" stop-color="#5B74C5"/>
</linearGradient>
<linearGradient id="paint5_linear_234_186" x1="71.2988" y1="27.7421" x2="44.7076" y2="53.8011" gradientUnits="userSpaceOnUse">
<stop stop-color="#03CE54"/>
<stop offset="1" stop-color="#5B74C5"/>
</linearGradient>
<linearGradient id="paint6_linear_234_186" x1="43.1091" y1="22.7458" x2="22.9396" y2="34.4025" gradientUnits="userSpaceOnUse">
<stop stop-color="#03CE54"/>
<stop offset="1" stop-color="#5B74C5"/>
</linearGradient>
<linearGradient id="paint7_linear_234_186" x1="32.782" y1="38.6422" x2="25.9425" y2="41.2908" gradientUnits="userSpaceOnUse">
<stop stop-color="#03CE54"/>
<stop offset="1" stop-color="#5B74C5"/>
</linearGradient>
<linearGradient id="paint8_linear_234_186" x1="34.0561" y1="30.119" x2="31.017" y2="33.2956" gradientUnits="userSpaceOnUse">
<stop stop-color="#03CE54"/>
<stop offset="1" stop-color="#5B74C5"/>
</linearGradient>
<linearGradient id="paint9_linear_234_186" x1="48.3868" y1="30.0697" x2="45.2877" y2="33.2946" gradientUnits="userSpaceOnUse">
<stop stop-color="#03CE54"/>
<stop offset="1" stop-color="#5B74C5"/>
</linearGradient>
<linearGradient id="paint10_linear_234_186" x1="74.7002" y1="38.6422" x2="67.8607" y2="41.2908" gradientUnits="userSpaceOnUse">
<stop stop-color="#03CE54"/>
<stop offset="1" stop-color="#5B74C5"/>
</linearGradient>
<linearGradient id="paint11_linear_234_186" x1="75.1471" y1="14.2339" x2="64.1763" y2="19.2314" gradientUnits="userSpaceOnUse">
<stop stop-color="#03CE54"/>
<stop offset="1" stop-color="#5B74C5"/>
</linearGradient>
<linearGradient id="paint12_linear_234_186" x1="70.7111" y1="15.4008" x2="39.5008" y2="42.3089" gradientUnits="userSpaceOnUse">
<stop stop-color="#03CE54"/>
<stop offset="1" stop-color="#5B74C5"/>
</linearGradient>
<linearGradient id="paint13_linear_234_186" x1="38.0163" y1="9.89411" x2="15.7015" y2="21.24" gradientUnits="userSpaceOnUse">
<stop stop-color="#03CE54"/>
<stop offset="1" stop-color="#5B74C5"/>
</linearGradient>
</defs>
</svg>
