<svg width="69" height="70" viewBox="0 0 69 70" fill="none" xmlns="http://www.w3.org/2000/svg">
<g id="&#208;&#156;&#208;&#190;&#209;&#130;&#208;&#181;&#208;&#187;&#209;&#140;">
<g id="&#208;&#156;&#208;&#190;&#209;&#130;&#208;&#181;&#208;&#187;&#209;&#140;_2" filter="url(#filter0_f_234_203)">
<g id="Group">
<g id="Group_2">
<path id="Vector" d="M43.7621 47.5753C34.0636 47.5753 26.2013 39.713 26.2013 30.0145C26.2013 23.9538 29.2716 18.6102 33.9416 15.4542C33.4004 15.4148 32.8538 15.3945 32.3025 15.3945C19.9852 15.3945 10 25.3797 10 37.6971C10 50.0145 19.9852 59.9996 32.3025 59.9996C42.2018 59.9996 50.5945 53.55 53.5083 44.6237C50.7197 46.4878 47.3681 47.5753 43.7621 47.5753Z" fill="url(#paint0_linear_234_203)" fill-opacity="0.6"/>
</g>
</g>
<g id="Group_3">
<g id="Group_4">
<path id="Vector_2" d="M51.9396 19.1804L57.4085 10H47.4021V12.9297H52.2531L46.7842 22.1101H58.0467V19.1804H51.9396Z" fill="url(#paint1_linear_234_203)" fill-opacity="0.6"/>
</g>
</g>
<g id="Group_5">
<g id="Group_6">
<path id="Vector_3" d="M43.5686 21.1582H34.5206V24.0879H38.4132L34.1929 31.1722H43.4725V28.2425H39.3482L43.5686 21.1582Z" fill="url(#paint2_linear_234_203)" fill-opacity="0.6"/>
</g>
</g>
<g id="Group_7">
<g id="Group_8">
<path id="Vector_4" d="M49.0206 37.8081L51.6918 33.3242H44.1317V36.2539H46.5364L43.8652 40.7378H51.7978V37.8081H49.0206Z" fill="url(#paint3_linear_234_203)" fill-opacity="0.6"/>
</g>
</g>
</g>
<g id="&#208;&#156;&#208;&#190;&#209;&#130;&#208;&#181;&#208;&#187;&#209;&#140;_3" filter="url(#filter1_ii_234_203)">
<g id="Group_9">
<g id="Group_10">
<path id="Vector_5" d="M45.7621 41.5753C36.0636 41.5753 28.2013 33.713 28.2013 24.0145C28.2013 17.9538 31.2716 12.6102 35.9416 9.4542C35.4004 9.41484 34.8538 9.39453 34.3025 9.39453C21.9852 9.39453 12 19.3797 12 31.6971C12 44.0145 21.9852 53.9996 34.3025 53.9996C44.2018 53.9996 52.5945 47.55 55.5083 38.6237C52.7197 40.4878 49.3681 41.5753 45.7621 41.5753Z" fill="url(#paint4_linear_234_203)"/>
</g>
</g>
<g id="Group_11">
<g id="Group_12">
<path id="Vector_6" d="M53.9396 13.1804L59.4085 4H49.4021V6.92969H54.2531L48.7842 16.1101H60.0467V13.1804H53.9396Z" fill="url(#paint5_linear_234_203)"/>
</g>
</g>
<g id="Group_13">
<g id="Group_14">
<path id="Vector_7" d="M45.5686 15.1582H36.5206V18.0879H40.4132L36.1929 25.1722H45.4725V22.2425H41.3482L45.5686 15.1582Z" fill="url(#paint6_linear_234_203)"/>
</g>
</g>
<g id="Group_15">
<g id="Group_16">
<path id="Vector_8" d="M51.0206 31.8081L53.6918 27.3242H46.1317V30.2539H48.5364L45.8652 34.7378H53.7978V31.8081H51.0206Z" fill="url(#paint7_linear_234_203)"/>
</g>
</g>
</g>
</g>
<defs>
<filter id="filter0_f_234_203" x="0" y="0" width="68.0466" height="69.9996" filterUnits="userSpaceOnUse" color-interpolation-filters="sRGB">
<feFlood flood-opacity="0" result="BackgroundImageFix"/>
<feBlend mode="normal" in="SourceGraphic" in2="BackgroundImageFix" result="shape"/>
<feGaussianBlur stdDeviation="5" result="effect1_foregroundBlur_234_203"/>
</filter>
<filter id="filter1_ii_234_203" x="12" y="4" width="52.0466" height="53.9996" filterUnits="userSpaceOnUse" color-interpolation-filters="sRGB">
<feFlood flood-opacity="0" result="BackgroundImageFix"/>
<feBlend mode="normal" in="SourceGraphic" in2="BackgroundImageFix" result="shape"/>
<feColorMatrix in="SourceAlpha" type="matrix" values="0 0 0 0 0 0 0 0 0 0 0 0 0 0 0 0 0 0 127 0" result="hardAlpha"/>
<feOffset dy="4"/>
<feGaussianBlur stdDeviation="2"/>
<feComposite in2="hardAlpha" operator="arithmetic" k2="-1" k3="1"/>
<feColorMatrix type="matrix" values="0 0 0 0 1 0 0 0 0 1 0 0 0 0 1 0 0 0 0.45 0"/>
<feBlend mode="normal" in2="shape" result="effect1_innerShadow_234_203"/>
<feColorMatrix in="SourceAlpha" type="matrix" values="0 0 0 0 0 0 0 0 0 0 0 0 0 0 0 0 0 0 127 0" result="hardAlpha"/>
<feOffset dx="4"/>
<feGaussianBlur stdDeviation="2"/>
<feComposite in2="hardAlpha" operator="arithmetic" k2="-1" k3="1"/>
<feColorMatrix type="matrix" values="0 0 0 0 0 0 0 0 0 0 0 0 0 0 0 0 0 0 0.25 0"/>
<feBlend mode="normal" in2="effect1_innerShadow_234_203" result="effect2_innerShadow_234_203"/>
</filter>
<linearGradient id="paint0_linear_234_203" x1="38.0718" y1="35.913" x2="17.1844" y2="62.9794" gradientUnits="userSpaceOnUse">
<stop stop-color="#03CE54"/>
<stop offset="1" stop-color="#5B74C5"/>
</linearGradient>
<linearGradient id="paint1_linear_234_203" x1="54.0508" y1="15.5707" x2="48.3172" y2="22.6546" gradientUnits="userSpaceOnUse">
<stop stop-color="#03CE54"/>
<stop offset="1" stop-color="#5B74C5"/>
</linearGradient>
<linearGradient id="paint2_linear_234_203" x1="40.2421" y1="25.7647" x2="35.5076" y2="31.6535" gradientUnits="userSpaceOnUse">
<stop stop-color="#03CE54"/>
<stop offset="1" stop-color="#5B74C5"/>
</linearGradient>
<linearGradient id="paint3_linear_234_203" x1="48.9833" y1="36.7345" x2="45.6056" y2="41.5359" gradientUnits="userSpaceOnUse">
<stop stop-color="#03CE54"/>
<stop offset="1" stop-color="#5B74C5"/>
</linearGradient>
<linearGradient id="paint4_linear_234_203" x1="33.733" y1="39.2802" x2="24.8639" y2="52.7842" gradientUnits="userSpaceOnUse">
<stop stop-color="#03CE54"/>
<stop offset="1" stop-color="#5B74C5"/>
</linearGradient>
<linearGradient id="paint5_linear_234_203" x1="54.41" y1="12.1138" x2="51.9584" y2="15.6728" gradientUnits="userSpaceOnUse">
<stop stop-color="#03CE54"/>
<stop offset="1" stop-color="#5B74C5"/>
</linearGradient>
<linearGradient id="paint6_linear_234_203" x1="40.8762" y1="21.8676" x2="38.8538" y2="24.8232" gradientUnits="userSpaceOnUse">
<stop stop-color="#03CE54"/>
<stop offset="1" stop-color="#5B74C5"/>
</linearGradient>
<linearGradient id="paint7_linear_234_203" x1="49.8276" y1="32.2914" x2="48.4118" y2="34.6562" gradientUnits="userSpaceOnUse">
<stop stop-color="#03CE54"/>
<stop offset="1" stop-color="#5B74C5"/>
</linearGradient>
</defs>
</svg>
