<svg width="76" height="57" viewBox="0 0 76 57" fill="none" xmlns="http://www.w3.org/2000/svg">
<g id="&#208;&#161;&#208;&#190;&#209;&#130;&#209;&#128;&#209;&#131;&#208;&#180;&#208;&#189;&#208;&#184;&#209;&#135;&#208;&#181;&#209;&#129;&#209;&#130;&#208;&#178;&#208;&#190;">
<g id="Vector" filter="url(#filter0_f_234_230)">
<path fill-rule="evenodd" clip-rule="evenodd" d="M10 23.8199L17.8641 10L25.5045 14.4755L17.6404 28.296L10 23.8199ZM21.5375 31.649L23.0422 30.1225C23.3799 29.785 23.8352 29.5964 24.3092 29.5975C24.7831 29.5987 25.2375 29.7896 25.5736 30.1288C25.9096 30.4679 26.1002 30.9279 26.1039 31.4088C26.1076 31.8897 25.9242 32.3527 25.5934 32.6972L24.0748 34.2383C23.7364 34.5797 23.2782 34.7708 22.8009 34.7694C22.3237 34.768 21.8665 34.5743 21.53 34.2309C21.1935 33.8875 21.0053 33.4226 21.0066 32.9384C21.008 32.4541 21.1989 31.9903 21.5373 31.6489L21.5375 31.649ZM24.1676 39.4382C24.5053 39.7801 24.9629 39.9721 25.44 39.9721C25.9171 39.9721 26.3747 39.7801 26.7125 39.4382L30.7189 35.3734C31.0564 35.031 31.2461 34.5665 31.2461 34.0822C31.2462 33.5979 31.0566 33.1334 30.7191 32.7909C30.3816 32.4485 29.9239 32.256 29.4466 32.256C28.9693 32.2559 28.5115 32.4483 28.174 32.7907L26.9366 34.0465C26.9321 34.0511 26.9279 34.0561 26.9234 34.0612C26.9212 34.0634 26.9186 34.0645 26.9163 34.0668L25.4248 35.5804C25.4226 35.5826 25.4209 35.5854 25.4187 35.5876C25.4144 35.591 25.4098 35.596 25.4055 35.5994L24.1676 36.8566C23.8306 37.1992 23.6413 37.6634 23.6413 38.1474C23.6413 38.6314 23.8306 39.0956 24.1676 39.4382ZM28.466 42.9532C28.129 42.6107 27.9397 42.1465 27.9396 41.6626C27.9395 41.1786 28.1286 40.7144 28.4653 40.3717L31.6372 37.1534H31.6379C31.9762 36.8159 32.4322 36.6277 32.9066 36.6296C33.381 36.6316 33.8354 36.8237 34.171 37.1639C34.5065 37.5042 34.696 37.9652 34.6983 38.4466C34.7005 38.9279 34.5152 39.3907 34.1828 39.7341L33.7661 40.1573L31.0109 42.9532C30.6733 43.2953 30.2156 43.4874 29.7384 43.4874C29.2612 43.4874 28.8036 43.2953 28.4659 42.9532H28.466ZM34.0364 47C34.2725 47.0013 34.5066 46.9551 34.7251 46.864C34.9435 46.7729 35.142 46.6388 35.309 46.4694L37.6473 44.096C37.9847 43.7536 38.1743 43.2892 38.1743 42.805C38.1743 42.3207 37.9847 41.8563 37.6473 41.5139C37.3098 41.1715 36.8521 40.9791 36.3749 40.9791C35.8976 40.9791 35.4399 41.1715 35.1024 41.5139L32.7649 43.8849C32.7649 43.8849 32.7642 43.8867 32.7638 43.8867C32.5115 44.1415 32.3395 44.4667 32.2697 44.8209C32.1999 45.1751 32.2355 45.5424 32.3718 45.876C32.5082 46.2097 32.7393 46.4947 33.0357 46.6948C33.332 46.8949 33.6804 47.0012 34.0364 47ZM40.8587 44.6306C40.6661 44.9498 40.3815 45.2012 40.0434 45.3509C39.7053 45.5005 39.33 45.5411 38.9684 45.4673L38.9836 45.4515C39.3268 45.1044 39.5987 44.6917 39.7836 44.2373C39.9685 43.7829 40.0628 43.2958 40.0608 42.8041C40.061 42.5124 40.028 42.2216 39.9624 41.9376L40.5858 42.3799C40.8712 42.671 41.053 43.0502 41.1025 43.4577C41.152 43.8652 41.0664 44.2779 40.8593 44.6306H40.8587ZM54.4597 33.4855C54.7065 33.0719 54.7822 32.576 54.6705 32.1059C54.5588 31.6359 54.2687 31.2296 53.8632 30.9755L39.5975 22.1251C39.0597 21.7842 38.4203 21.6475 37.7926 21.739C37.1649 21.8306 36.5894 22.1446 36.168 22.6254L33.64 25.4544C33.2099 25.9356 32.6697 26.3019 32.067 26.521C31.4642 26.74 30.8176 26.8051 30.1843 26.7103C29.5509 26.6156 28.9503 26.3641 28.4355 25.9779C27.9207 25.5918 27.5075 25.0829 27.2326 24.4962C27.1332 24.2836 27.0347 24.0523 26.9403 23.8092C26.8365 23.5483 26.8053 23.2635 26.8501 22.9859C26.8949 22.7083 27.014 22.4485 27.1944 22.2348L29.7496 19.1564L26.079 17.3007L19.8462 28.2542L21.3831 29.0943L21.7061 28.7662C22.1775 28.2872 22.7681 27.9469 23.4151 27.7816C24.0621 27.6164 24.7411 27.6323 25.3798 27.8278C26.0186 28.0233 26.5931 28.391 27.0421 28.8916C27.4911 29.3923 27.7978 30.0072 27.9295 30.6708C28.6126 30.3588 29.3729 30.2649 30.1098 30.4013C30.8467 30.5378 31.5253 30.8983 32.0557 31.435C32.3988 31.7821 32.6707 32.1947 32.8555 32.6491C33.0404 33.1035 33.1347 33.5906 33.1328 34.0822C33.1326 34.2909 33.1154 34.4992 33.0813 34.7051C33.6028 34.729 34.1134 34.8651 34.5792 35.1044C35.0449 35.3438 35.4552 35.6808 35.7829 36.0932C36.1105 36.5056 36.348 36.984 36.4797 37.4966C36.6113 38.0092 36.6341 38.5443 36.5464 39.0665C36.6357 39.0709 36.7247 39.0794 36.8135 39.0901C36.8315 38.9247 36.8917 38.7669 36.9882 38.6323C37.0846 38.4976 37.2139 38.3907 37.3634 38.3222C37.5128 38.2537 37.6773 38.2258 37.8407 38.2414C38.004 38.2569 38.1605 38.3154 38.2948 38.411L41.7073 40.8362L42.6945 41.4449C42.951 41.6082 43.2469 41.6966 43.5498 41.7002C43.8526 41.7037 44.1505 41.6224 44.4107 41.4652C45.0639 41.1045 45.5313 40.3938 45.5475 39.7371C45.5616 39.1712 45.2501 38.6866 44.6216 38.2973C44.6216 38.2973 44.6209 38.2973 44.6205 38.2955L39.575 35.1669C39.3612 35.0342 39.2081 34.8208 39.1494 34.5737C39.0907 34.3265 39.1311 34.0658 39.2619 33.8489C39.3926 33.632 39.6029 33.4766 39.8465 33.4171C40.0901 33.3575 40.347 33.3985 40.5608 33.5312L47.4062 37.7783C47.8134 38.031 48.3029 38.1092 48.7669 37.9957C49.2309 37.8823 49.6315 37.5864 49.8806 37.1733C50.1296 36.7601 50.2067 36.2635 50.0949 35.7927C49.9831 35.3219 49.6915 34.9154 49.2843 34.6627L41.7207 29.9706C41.5081 29.8373 41.3562 29.6241 41.2982 29.3776C41.2402 29.131 41.2808 28.8711 41.4111 28.6549C41.5414 28.4386 41.7509 28.2835 41.9936 28.2235C42.2364 28.1635 42.4927 28.2036 42.7064 28.3349L50.2683 33.0253L50.2695 33.0264C50.2703 33.0264 50.2712 33.0281 50.2719 33.0281L51.9851 34.091C52.3928 34.3418 52.8817 34.4189 53.3452 34.3054C53.8087 34.192 54.2092 33.8973 54.4594 33.4855H54.4597ZM53.7919 28.6837L40.5831 20.4894C39.6711 19.9115 38.5869 19.6797 37.5226 19.835C36.4583 19.9903 35.4825 20.5227 34.7679 21.3379L32.24 24.1665C32.0184 24.4144 31.7401 24.6031 31.4297 24.716C31.1192 24.8288 30.7861 24.8623 30.4598 24.8135C30.1335 24.7648 29.8241 24.6352 29.5589 24.4363C29.2937 24.2373 29.0809 23.9752 28.9393 23.673C28.8851 23.5571 28.8312 23.4341 28.7775 23.3039L33.8588 17.1826C34.1886 16.769 34.6082 16.4384 35.0848 16.2166C35.5614 15.9948 36.0821 15.8878 36.6062 15.904L49.1926 16.0396L55.6646 27.4124L53.7919 28.6834V28.6837ZM58.3597 28.3145L50.4957 14.494L58.1359 10.0185L66 23.8389L58.3597 28.3145Z" fill="url(#paint0_linear_234_230)" fill-opacity="0.6"/>
</g>
<g id="Vector_2" filter="url(#filter1_ii_234_230)">
<path fill-rule="evenodd" clip-rule="evenodd" d="M5 17.8199L12.8641 4L20.5045 8.47551L12.6404 22.296L5 17.8199ZM16.5375 25.649L18.0422 24.1225C18.3799 23.785 18.8352 23.5964 19.3092 23.5975C19.7831 23.5987 20.2375 23.7896 20.5736 24.1288C20.9096 24.4679 21.1002 24.9279 21.1039 25.4088C21.1076 25.8897 20.9242 26.3527 20.5934 26.6972L19.0748 28.2383C18.7364 28.5797 18.2782 28.7708 17.8009 28.7694C17.3237 28.768 16.8665 28.5743 16.53 28.2309C16.1935 27.8875 16.0053 27.4226 16.0066 26.9384C16.008 26.4541 16.1989 25.9903 16.5373 25.6489L16.5375 25.649ZM19.1676 33.4382C19.5053 33.7801 19.9629 33.9721 20.44 33.9721C20.9171 33.9721 21.3747 33.7801 21.7125 33.4382L25.7189 29.3734C26.0564 29.031 26.2461 28.5665 26.2461 28.0822C26.2462 27.5979 26.0566 27.1334 25.7191 26.7909C25.3816 26.4485 24.9239 26.256 24.4466 26.256C23.9693 26.2559 23.5115 26.4483 23.174 26.7907L21.9366 28.0465C21.9321 28.0511 21.9279 28.0561 21.9234 28.0612C21.9212 28.0634 21.9186 28.0645 21.9163 28.0668L20.4248 29.5804C20.4226 29.5826 20.4209 29.5854 20.4187 29.5876C20.4144 29.591 20.4098 29.596 20.4055 29.5994L19.1676 30.8566C18.8306 31.1992 18.6413 31.6634 18.6413 32.1474C18.6413 32.6314 18.8306 33.0956 19.1676 33.4382ZM23.466 36.9532C23.129 36.6107 22.9397 36.1465 22.9396 35.6626C22.9395 35.1786 23.1286 34.7144 23.4653 34.3717L26.6372 31.1534H26.6379C26.9762 30.8159 27.4322 30.6277 27.9066 30.6296C28.381 30.6316 28.8354 30.8237 29.171 31.1639C29.5065 31.5042 29.696 31.9652 29.6983 32.4466C29.7005 32.9279 29.5152 33.3907 29.1828 33.7341L28.7661 34.1573L26.0109 36.9532C25.6733 37.2953 25.2156 37.4874 24.7384 37.4874C24.2612 37.4874 23.8036 37.2953 23.4659 36.9532H23.466ZM29.0364 41C29.2725 41.0013 29.5066 40.9551 29.7251 40.864C29.9435 40.7729 30.142 40.6388 30.309 40.4694L32.6473 38.096C32.9847 37.7536 33.1743 37.2892 33.1743 36.805C33.1743 36.3207 32.9847 35.8563 32.6473 35.5139C32.3098 35.1715 31.8521 34.9791 31.3749 34.9791C30.8976 34.9791 30.4399 35.1715 30.1024 35.5139L27.7649 37.8849C27.7649 37.8849 27.7642 37.8867 27.7638 37.8867C27.5115 38.1415 27.3395 38.4667 27.2697 38.8209C27.1999 39.1751 27.2355 39.5424 27.3718 39.876C27.5082 40.2097 27.7393 40.4947 28.0357 40.6948C28.332 40.8949 28.6804 41.0012 29.0364 41ZM35.8587 38.6306C35.6661 38.9498 35.3815 39.2012 35.0434 39.3509C34.7053 39.5005 34.33 39.5411 33.9684 39.4673L33.9836 39.4515C34.3268 39.1044 34.5987 38.6917 34.7836 38.2373C34.9685 37.7829 35.0628 37.2958 35.0608 36.8041C35.061 36.5124 35.028 36.2216 34.9624 35.9376L35.5858 36.3799C35.8712 36.671 36.053 37.0502 36.1025 37.4577C36.152 37.8652 36.0664 38.2779 35.8593 38.6306H35.8587ZM49.4597 27.4855C49.7065 27.0719 49.7822 26.576 49.6705 26.1059C49.5588 25.6359 49.2687 25.2296 48.8632 24.9755L34.5975 16.1251C34.0597 15.7842 33.4203 15.6475 32.7926 15.739C32.1649 15.8306 31.5894 16.1446 31.168 16.6254L28.64 19.4544C28.2099 19.9356 27.6697 20.3019 27.067 20.521C26.4642 20.74 25.8176 20.8051 25.1843 20.7103C24.5509 20.6156 23.9503 20.3641 23.4355 19.9779C22.9207 19.5918 22.5075 19.0829 22.2326 18.4962C22.1332 18.2836 22.0347 18.0523 21.9403 17.8092C21.8365 17.5483 21.8053 17.2635 21.8501 16.9859C21.8949 16.7083 22.014 16.4485 22.1944 16.2348L24.7496 13.1564L21.079 11.3007L14.8462 22.2542L16.3831 23.0943L16.7061 22.7662C17.1775 22.2872 17.7681 21.9469 18.4151 21.7816C19.0621 21.6164 19.7411 21.6323 20.3798 21.8278C21.0186 22.0233 21.5931 22.391 22.0421 22.8916C22.4911 23.3923 22.7978 24.0072 22.9295 24.6708C23.6126 24.3588 24.3729 24.2649 25.1098 24.4013C25.8467 24.5378 26.5253 24.8983 27.0557 25.435C27.3988 25.7821 27.6707 26.1947 27.8555 26.6491C28.0404 27.1035 28.1347 27.5906 28.1328 28.0822C28.1326 28.2909 28.1154 28.4992 28.0813 28.7051C28.6028 28.729 29.1134 28.8651 29.5792 29.1044C30.0449 29.3438 30.4552 29.6808 30.7829 30.0932C31.1105 30.5056 31.348 30.984 31.4797 31.4966C31.6113 32.0092 31.6341 32.5443 31.5464 33.0665C31.6357 33.0709 31.7247 33.0794 31.8135 33.0901C31.8315 32.9247 31.8917 32.7669 31.9882 32.6323C32.0846 32.4976 32.2139 32.3907 32.3634 32.3222C32.5128 32.2537 32.6773 32.2258 32.8407 32.2414C33.004 32.2569 33.1605 32.3154 33.2948 32.411L36.7073 34.8362L37.6945 35.4449C37.951 35.6082 38.2469 35.6966 38.5498 35.7002C38.8526 35.7037 39.1505 35.6224 39.4107 35.4652C40.0639 35.1045 40.5313 34.3938 40.5475 33.7371C40.5616 33.1712 40.2501 32.6866 39.6216 32.2973C39.6216 32.2973 39.6209 32.2973 39.6205 32.2955L34.575 29.1669C34.3612 29.0342 34.2081 28.8208 34.1494 28.5737C34.0907 28.3265 34.1311 28.0658 34.2619 27.8489C34.3926 27.632 34.6029 27.4766 34.8465 27.4171C35.0901 27.3575 35.347 27.3985 35.5608 27.5312L42.4062 31.7783C42.8134 32.031 43.3029 32.1092 43.7669 31.9957C44.2309 31.8823 44.6315 31.5864 44.8806 31.1733C45.1296 30.7601 45.2067 30.2635 45.0949 29.7927C44.9831 29.3219 44.6915 28.9154 44.2843 28.6627L36.7207 23.9706C36.5081 23.8373 36.3562 23.6241 36.2982 23.3776C36.2402 23.131 36.2808 22.8711 36.4111 22.6549C36.5414 22.4386 36.7509 22.2835 36.9936 22.2235C37.2364 22.1635 37.4927 22.2036 37.7064 22.3349L45.2683 27.0253L45.2695 27.0264C45.2703 27.0264 45.2712 27.0281 45.2719 27.0281L46.9851 28.091C47.3928 28.3418 47.8817 28.4189 48.3452 28.3054C48.8087 28.192 49.2092 27.8973 49.4594 27.4855H49.4597ZM48.7919 22.6837L35.5831 14.4894C34.6711 13.9115 33.5869 13.6797 32.5226 13.835C31.4583 13.9903 30.4825 14.5227 29.7679 15.3379L27.24 18.1665C27.0184 18.4144 26.7401 18.6031 26.4297 18.716C26.1192 18.8288 25.7861 18.8623 25.4598 18.8135C25.1335 18.7648 24.8241 18.6352 24.5589 18.4363C24.2937 18.2373 24.0809 17.9752 23.9393 17.673C23.8851 17.5571 23.8312 17.4341 23.7775 17.3039L28.8588 11.1826C29.1886 10.769 29.6082 10.4384 30.0848 10.2166C30.5614 9.99477 31.0821 9.8878 31.6062 9.90401L44.1926 10.0396L50.6646 21.4124L48.7919 22.6834V22.6837ZM53.3597 22.3145L45.4957 8.49404L53.1359 4.01853L61 17.8389L53.3597 22.3145Z" fill="url(#paint1_linear_234_230)"/>
</g>
</g>
<defs>
<filter id="filter0_f_234_230" x="0" y="0" width="76" height="57" filterUnits="userSpaceOnUse" color-interpolation-filters="sRGB">
<feFlood flood-opacity="0" result="BackgroundImageFix"/>
<feBlend mode="normal" in="SourceGraphic" in2="BackgroundImageFix" result="shape"/>
<feGaussianBlur stdDeviation="5" result="effect1_foregroundBlur_234_230"/>
</filter>
<filter id="filter1_ii_234_230" x="5" y="4" width="60" height="41" filterUnits="userSpaceOnUse" color-interpolation-filters="sRGB">
<feFlood flood-opacity="0" result="BackgroundImageFix"/>
<feBlend mode="normal" in="SourceGraphic" in2="BackgroundImageFix" result="shape"/>
<feColorMatrix in="SourceAlpha" type="matrix" values="0 0 0 0 0 0 0 0 0 0 0 0 0 0 0 0 0 0 127 0" result="hardAlpha"/>
<feOffset dy="4"/>
<feGaussianBlur stdDeviation="2"/>
<feComposite in2="hardAlpha" operator="arithmetic" k2="-1" k3="1"/>
<feColorMatrix type="matrix" values="0 0 0 0 1 0 0 0 0 1 0 0 0 0 1 0 0 0 0.45 0"/>
<feBlend mode="normal" in2="shape" result="effect1_innerShadow_234_230"/>
<feColorMatrix in="SourceAlpha" type="matrix" values="0 0 0 0 0 0 0 0 0 0 0 0 0 0 0 0 0 0 127 0" result="hardAlpha"/>
<feOffset dx="4"/>
<feGaussianBlur stdDeviation="2"/>
<feComposite in2="hardAlpha" operator="arithmetic" k2="-1" k3="1"/>
<feColorMatrix type="matrix" values="0 0 0 0 0 0 0 0 0 0 0 0 0 0 0 0 0 0 0.2 0"/>
<feBlend mode="normal" in2="effect1_innerShadow_234_230" result="effect2_innerShadow_234_230"/>
</filter>
<linearGradient id="paint0_linear_234_230" x1="48" y1="21.5" x2="25" y2="47" gradientUnits="userSpaceOnUse">
<stop stop-color="#03CE54"/>
<stop offset="1" stop-color="#5B74C5"/>
</linearGradient>
<linearGradient id="paint1_linear_234_230" x1="43" y1="15.5" x2="20" y2="41" gradientUnits="userSpaceOnUse">
<stop stop-color="#03CE54"/>
<stop offset="1" stop-color="#5B74C5"/>
</linearGradient>
</defs>
</svg>
