<svg width="120" height="120" viewBox="0 0 120 120" fill="none" xmlns="http://www.w3.org/2000/svg">
<g id="trailer_t4lv4khmgwrg 1">
<path id="Vector" d="M118.4 59.7041L100 56.0244V43.6641C100 42.8184 99.4688 42.0645 98.6719 41.7803L72 32.2637V25.6641C72 25.1338 71.7891 24.625 71.4141 24.25L67.4141 20.25L64.5859 23.0781L68 26.4922V31.6641H58C56.8955 31.6641 56 32.5596 56 33.6641V63.6641H22C20.8955 63.6641 20 64.5596 20 65.6641V71.6641H2C0.895508 71.6641 0 72.5596 0 73.6641V81.6641C0 82.7686 0.895508 83.6641 2 83.6641H4.16016C3.19629 90.2637 7.0293 96.625 13.3145 98.8564C19.5996 101.089 26.5869 98.5684 30 92.8379C33.3887 98.6133 40.4004 101.169 46.7109 98.9287C53.0205 96.6885 56.8516 90.2832 55.8398 83.6641H60V89.6641C60 90.7686 60.8955 91.6641 62 91.6641H76C77.1045 91.6641 78 90.7686 78 89.6641V83.6641H82.1602C81.3291 89.1113 83.7705 94.5381 88.3975 97.5303C93.0244 100.522 98.9756 100.522 103.603 97.5303C108.229 94.5381 110.671 89.1113 109.84 83.6641H118C119.104 83.6641 120 82.7686 120 81.6641V61.6641C120 60.7139 119.331 59.8945 118.4 59.7041ZM116 67.6641H108V61.7041L116 63.3037V67.6641ZM96 61.6641H78.8281L83.4141 57.0781L80.5859 54.25L76 58.8359V45.6641H93.1719L86.5859 52.25L89.4141 55.0781L96 48.4922V61.6641ZM72 45.6641V79.6641H68V45.6641H72ZM86.4541 41.6641H72V36.502L86.4541 41.6641ZM60 35.6641H68V41.6641H66C64.8955 41.6641 64 42.5596 64 43.6641V79.6641H60V35.6641ZM24 67.6641H56V71.6641H24V67.6641ZM30 78.4902C29.3838 77.457 28.6377 76.5068 27.7803 75.6641H32.2197C31.3623 76.5068 30.6162 77.457 30 78.4902ZM4 79.6641V75.6641H8.21973C7.04297 76.8203 6.07812 78.1738 5.37012 79.6641H4ZM18 95.6641C12.4775 95.6641 8 91.1865 8 85.6641C8 80.1416 12.4775 75.6641 18 75.6641C23.5225 75.6641 28 80.1416 28 85.6641C27.9932 91.1846 23.5205 95.6572 18 95.6641ZM42 95.6641C36.4775 95.6641 32 91.1865 32 85.6641C32 80.1416 36.4775 75.6641 42 75.6641C47.5225 75.6641 52 80.1416 52 85.6641C51.9932 91.1846 47.5205 95.6572 42 95.6641ZM51.7803 75.6641H56V79.6641H54.6299C53.9219 78.1738 52.957 76.8203 51.7803 75.6641ZM74 87.6641H64V83.6641H74V87.6641ZM96 95.6641C90.4775 95.6641 86 91.1865 86 85.6641C86 80.1416 90.4775 75.6641 96 75.6641C101.522 75.6641 106 80.1416 106 85.6641C105.993 91.1846 101.521 95.6572 96 95.6641ZM108.63 79.6641C106.321 74.7793 101.402 71.6641 96 71.6641C90.5977 71.6641 85.6787 74.7793 83.3701 79.6641H76V73.6641H84V69.6641H76V65.6641H98C99.1045 65.6641 100 64.7686 100 63.6641V60.1035L104 60.9043V69.6641C104 70.7686 104.896 71.6641 106 71.6641H116V79.6641H108.63Z" fill="#008F39" fill-opacity="0.4"/>
<path id="Vector_2" d="M42 79.6641C38.6865 79.6641 36 82.3506 36 85.6641C36 88.9775 38.6865 91.6641 42 91.6641C45.3135 91.6641 48 88.9775 48 85.6641C48 82.3506 45.3135 79.6641 42 79.6641ZM42 87.6641C40.8955 87.6641 40 86.7686 40 85.6641C40 84.5596 40.8955 83.6641 42 83.6641C43.1045 83.6641 44 84.5596 44 85.6641C44 86.7686 43.1045 87.6641 42 87.6641Z" fill="#008F39" fill-opacity="0.4"/>
<path id="Vector_3" d="M18 79.6641C14.6865 79.6641 12 82.3506 12 85.6641C12 88.9775 14.6865 91.6641 18 91.6641C21.3135 91.6641 24 88.9775 24 85.6641C24 82.3506 21.3135 79.6641 18 79.6641ZM18 87.6641C16.8955 87.6641 16 86.7686 16 85.6641C16 84.5596 16.8955 83.6641 18 83.6641C19.1045 83.6641 20 84.5596 20 85.6641C20 86.7686 19.1045 87.6641 18 87.6641Z" fill="#008F39" fill-opacity="0.4"/>
<path id="Vector_4" d="M96 79.6641C92.6865 79.6641 90 82.3506 90 85.6641C90 88.9775 92.6865 91.6641 96 91.6641C99.3135 91.6641 102 88.9775 102 85.6641C102 82.3506 99.3135 79.6641 96 79.6641ZM96 87.6641C94.8955 87.6641 94 86.7686 94 85.6641C94 84.5596 94.8955 83.6641 96 83.6641C97.1045 83.6641 98 84.5596 98 85.6641C98 86.7686 97.1045 87.6641 96 87.6641Z" fill="#008F39" fill-opacity="0.4"/>
</g>
</svg>
