<svg width="100" height="100" viewBox="0 0 100 100" fill="none" xmlns="http://www.w3.org/2000/svg">
<g id="lift_jrdtuvddgokf 1" clip-path="url(#clip0_233_1206)">
<g id="Group">
<g id="Group_2">
<path id="Vector" d="M21.9259 30.4866H21.9251C19.2776 30.3153 16.9844 32.3047 16.7801 34.9499C16.5921 37.6041 18.5909 39.9081 21.2451 40.0966C21.3584 40.0966 21.4751 40.1083 21.5884 40.1083C24.113 40.1026 26.2061 38.1512 26.3884 35.6333C26.5774 32.9797 24.5794 30.6756 21.9259 30.4866ZM23.0601 35.3916C22.9996 36.2078 22.2915 36.822 21.4751 36.7666C20.658 36.7089 20.0421 36.0003 20.0984 35.1833C20.1584 34.4074 20.8053 33.8085 21.5834 33.8083C21.618 33.8083 21.6501 33.8083 21.6851 33.8083C22.5019 33.866 23.1174 34.5747 23.0601 35.3916Z" fill="#008F39" fill-opacity="0.4"/>
</g>
</g>
<g id="Group_3">
<g id="Group_4">
<path id="Vector_2" d="M98.3334 36.6667C99.2538 36.6667 100 35.9204 100 35V20.735C99.9965 18.5861 98.6202 16.6798 96.5817 16L89.2167 13.5367L77.515 2.31834C75.9656 0.827718 73.8983 -0.00332334 71.7484 9.98891e-06H39.2017C37.1611 -0.000823345 35.1911 0.748343 33.6667 2.10501L20.92 13.4383L6.96668 15.7717C2.94459 16.4283 -0.0066554 19.9065 1.12719e-05 23.9817V35C1.12719e-05 35.9204 0.746261 36.6667 1.66668 36.6667H10.1333C10.4967 39.2011 11.6867 41.5446 13.5183 43.3333H1.66668C0.746261 43.3333 1.12719e-05 44.0796 1.12719e-05 45V51.6667C1.12719e-05 52.5871 0.746261 53.3333 1.66668 53.3333H7.89168L39.9733 71.6667L7.89168 90H1.66668C0.746261 90 1.12719e-05 90.7463 1.12719e-05 91.6667V98.3334C1.12719e-05 99.2538 0.746261 100 1.66668 100H98.3334C99.2538 100 100 99.2538 100 98.3334V91.6667C100 90.7463 99.2538 90 98.3334 90H92.1084L60.0267 71.6667L92.1084 53.3333H98.3334C99.2538 53.3333 100 52.5871 100 51.6667V45C100 44.0796 99.2538 43.3333 98.3334 43.3333H89.815C91.6467 41.5446 92.8367 39.2011 93.2 36.6667H98.3334ZM61.6667 3.33334H71.7484C73.0381 3.33105 74.2786 3.82939 75.2084 4.72334L84.1884 13.3333H61.6667V3.33334ZM35.8783 4.59668C36.794 3.78272 37.9765 3.33314 39.2017 3.33334H58.3333V13.3333H26.05L35.8783 4.59668ZM70.1334 36.6667C70.4967 39.2011 71.6867 41.5446 73.5183 43.3333H29.815C31.6467 41.5446 32.8367 39.2011 33.2 36.6667H70.1334ZM12.6333 27.6317C12.445 27.8617 12.2683 28.1017 12.0983 28.345C12.0633 28.3967 12.025 28.4433 11.99 28.4933C11.7877 28.7933 11.6 29.1023 11.4267 29.42C11.3817 29.5 11.3467 29.5867 11.3033 29.6683C11.18 29.9067 11.06 30.1467 10.9533 30.395C10.9 30.5183 10.8567 30.645 10.8083 30.7683C10.7233 30.9833 10.6417 31.1967 10.57 31.4167C10.5233 31.56 10.4867 31.705 10.445 31.85C10.3867 32.06 10.33 32.27 10.2783 32.485C10.245 32.6383 10.2183 32.795 10.19 32.9517C10.1667 33.0783 10.135 33.2033 10.1167 33.3333H3.33334V26.6667H6.66668V23.3333H3.39168C3.66647 21.1511 5.34189 19.4086 7.51168 19.0483L21.805 16.6667H58.3333V33.3333H33.215C33.1967 33.205 33.165 33.08 33.1417 32.9533C33.1133 32.795 33.0867 32.6383 33.0517 32.4833C33.005 32.27 32.9483 32.06 32.885 31.8517C32.8433 31.7067 32.8067 31.56 32.76 31.4167C32.6883 31.1967 32.6067 30.9833 32.5217 30.7683C32.4733 30.645 32.43 30.5183 32.3767 30.395C32.27 30.1467 32.15 29.9067 32.0267 29.6683C31.9833 29.5867 31.9483 29.5017 31.9033 29.42C31.73 29.1011 31.5423 28.7927 31.34 28.495C31.305 28.44 31.2633 28.3917 31.225 28.3383C31.0583 28.0967 30.8917 27.86 30.6967 27.6317C30.62 27.5367 30.53 27.4483 30.4533 27.355C30.2983 27.1767 30.1433 27 29.9783 26.8333C29.88 26.7333 29.7767 26.64 29.675 26.5433C29.5167 26.3933 29.3567 26.2433 29.19 26.1017C29.0767 26.0067 28.9617 25.9167 28.845 25.8267C28.6783 25.695 28.5117 25.5683 28.345 25.4467C28.22 25.3583 28.0933 25.28 27.965 25.1933C27.79 25.08 27.6133 24.9717 27.4317 24.86C27.2967 24.7833 27.1617 24.71 27.025 24.6383C26.84 24.5417 26.65 24.4517 26.46 24.365C26.3183 24.3017 26.1783 24.2383 26.035 24.18C25.8367 24.1 25.635 24.0283 25.4317 23.96C25.2883 23.91 25.1467 23.8583 25 23.815C24.785 23.7517 24.5667 23.7 24.3483 23.6483C24.2067 23.615 24.0667 23.5783 23.9233 23.55C23.6783 23.5017 23.4233 23.4683 23.18 23.435C23.0567 23.42 22.9367 23.3967 22.8117 23.385C22.4333 23.355 22.0517 23.3333 21.6667 23.3333C21.2817 23.3333 20.9 23.355 20.525 23.3917C20.4 23.4033 20.28 23.4267 20.1567 23.4417C19.9067 23.475 19.6567 23.5083 19.4133 23.5567C19.27 23.585 19.13 23.6217 18.99 23.655C18.77 23.7067 18.5517 23.76 18.3367 23.8217C18.19 23.865 18.0483 23.9167 17.905 23.9667C17.7017 24.035 17.5 24.1067 17.3017 24.1867C17.1583 24.245 17.0183 24.3083 16.8767 24.3717C16.6867 24.4583 16.4967 24.5483 16.3117 24.645C16.175 24.7167 16.04 24.79 15.905 24.8667C15.7233 24.97 15.5467 25.0783 15.37 25.2C15.2433 25.2817 15.1167 25.3667 14.9917 25.4517C14.825 25.5733 14.65 25.7017 14.4917 25.8333C14.375 25.9233 14.26 26.0133 14.1467 26.1083C13.98 26.25 13.8133 26.4 13.6617 26.55C13.56 26.6467 13.4567 26.74 13.3583 26.84C13.1917 27.0067 13.0383 27.1833 12.8833 27.3617C12.795 27.4483 12.7083 27.5367 12.6317 27.6317H12.6333ZM13.3333 35C13.3333 30.3977 17.0644 26.6667 21.6667 26.6667C26.269 26.6667 30 30.3977 30 35C30 39.6023 26.269 43.3333 21.6667 43.3333C17.0667 43.3279 13.3388 39.6 13.3333 35ZM42.1017 74.29C42.1017 74.3134 42.1233 74.335 42.1317 74.3584C42.2925 74.8129 42.4921 75.2529 42.7283 75.6733C42.77 75.75 42.8133 75.8233 42.8583 75.8984C43.1052 76.3148 43.3881 76.7092 43.7034 77.0767C43.7183 77.0933 43.7283 77.115 43.7433 77.1317L21.2233 90H14.61L42.1017 74.29ZM46.69 79.29C48.7994 80.2192 51.2023 80.2192 53.3117 79.29L72.0567 90H27.9417L46.69 79.29ZM96.6667 93.3334V96.6667H3.33334V93.3334H96.6667ZM85.39 90H78.7767L54.185 75.9483C53.6675 75.6538 53.0323 75.6575 52.5183 75.9584C50.9746 76.8981 49.0354 76.8981 47.4917 75.9584C45.9523 75.0775 45.0017 73.4404 45 71.6667C45 71.5198 44.9804 71.3733 44.9417 71.2317C44.9317 71.1933 44.91 71.1583 44.8967 71.1217C44.8654 71.0213 44.8248 70.9242 44.775 70.8317C44.7517 70.79 44.715 70.7567 44.6883 70.7167C44.6367 70.6363 44.5781 70.5604 44.5133 70.49C44.4654 70.449 44.4154 70.4106 44.3633 70.375C44.3029 70.32 44.2383 70.2698 44.17 70.225L14.61 53.3333H21.2233L45.815 67.385C46.3325 67.6796 46.9677 67.6758 47.4817 67.375C49.0254 66.4352 50.9646 66.4352 52.5083 67.375C54.0477 68.2559 54.9983 69.8931 55 71.6667C55 71.8136 55.0196 71.96 55.0583 72.1017C55.0683 72.14 55.09 72.175 55.1033 72.2117C55.1346 72.3121 55.1752 72.4092 55.225 72.5017C55.2483 72.5434 55.285 72.5767 55.3117 72.6167C55.3633 72.6971 55.4219 72.7729 55.4867 72.8434C55.5346 72.8844 55.5846 72.9229 55.6367 72.9584C55.6971 73.0134 55.7617 73.0636 55.83 73.1084L85.39 90ZM27.9433 53.3333H72.0583L53.31 64.0467C51.2008 63.1159 48.7975 63.1159 46.6884 64.0467L27.9433 53.3333ZM57.8983 69.0434C57.8983 69.02 57.8767 68.9983 57.8684 68.975C57.7075 68.5204 57.5079 68.0804 57.2717 67.66C57.23 67.5834 57.1867 67.51 57.1417 67.435C56.8948 67.0186 56.6119 66.6242 56.2967 66.2567C56.2817 66.24 56.2717 66.2184 56.2567 66.2017L78.7767 53.3333H85.39L57.8983 69.0434ZM96.6667 46.6667V50H3.33334V46.6667H96.6667ZM81.6667 43.3333C77.0644 43.3333 73.3334 39.6023 73.3334 35C73.3334 30.3977 77.0644 26.6667 81.6667 26.6667C86.269 26.6667 90 30.3977 90 35C89.9946 39.6 86.2669 43.3279 81.6667 43.3333ZM93.0517 32.4833C93.005 32.27 92.9483 32.06 92.885 31.8517C92.8433 31.7067 92.8067 31.56 92.76 31.4167C92.6883 31.1967 92.6067 30.9833 92.5217 30.7683C92.4734 30.645 92.43 30.5183 92.3767 30.395C92.27 30.1467 92.15 29.9067 92.0267 29.6683C91.9834 29.5867 91.9483 29.5017 91.9034 29.42C91.73 29.1011 91.5423 28.7927 91.34 28.495C91.305 28.44 91.2634 28.3917 91.225 28.3383C91.0583 28.0967 90.8917 27.86 90.6967 27.6317C90.62 27.5367 90.53 27.4483 90.4533 27.355C90.2983 27.1767 90.1433 27 89.9783 26.8333C89.88 26.7333 89.7767 26.64 89.675 26.5433C89.5167 26.3933 89.3567 26.2433 89.19 26.1017C89.0767 26.0067 88.9617 25.9167 88.845 25.8267C88.6784 25.695 88.5117 25.5683 88.345 25.4467C88.22 25.3583 88.0933 25.28 87.965 25.1933C87.79 25.08 87.6133 24.9717 87.4317 24.86C87.2967 24.7833 87.1617 24.71 87.025 24.6383C86.84 24.5417 86.65 24.4517 86.46 24.365C86.3184 24.3017 86.1783 24.2383 86.035 24.18C85.8367 24.1 85.635 24.0283 85.4317 23.96C85.2883 23.91 85.1467 23.8583 85 23.815C84.785 23.7517 84.5667 23.7 84.3484 23.6483C84.2067 23.615 84.0667 23.5783 83.9233 23.55C83.6784 23.5017 83.4234 23.4683 83.18 23.435C83.0567 23.42 82.9367 23.3967 82.8117 23.385C82.4333 23.355 82.0517 23.3333 81.6667 23.3333C81.2817 23.3333 80.9 23.355 80.525 23.3917C80.4 23.4033 80.28 23.4267 80.1567 23.4417C79.9067 23.475 79.6567 23.5083 79.4133 23.5567C79.27 23.585 79.13 23.6217 78.99 23.655C78.77 23.7067 78.5517 23.76 78.3367 23.8217C78.19 23.865 78.0483 23.9167 77.905 23.9667C77.7017 24.035 77.5 24.1067 77.3017 24.1867C77.1583 24.245 77.0183 24.3083 76.8767 24.3717C76.6867 24.4583 76.4967 24.5483 76.3117 24.645C76.175 24.7167 76.04 24.79 75.905 24.8667C75.7234 24.97 75.5467 25.0783 75.37 25.2C75.2433 25.2817 75.1167 25.3667 74.9917 25.4517C74.825 25.5733 74.6583 25.7017 74.4917 25.8333C74.375 25.9233 74.26 26.0133 74.1467 26.1083C73.98 26.25 73.8133 26.4 73.6617 26.55C73.56 26.6467 73.4567 26.74 73.3583 26.84C73.1917 27.0067 73.0383 27.1833 72.8833 27.3617C72.8034 27.455 72.7167 27.5433 72.64 27.6383C72.4517 27.8683 72.275 28.1083 72.105 28.3517C72.07 28.4033 72.0317 28.45 71.9967 28.5C71.7956 28.8 71.6077 29.109 71.4333 29.4267C71.3884 29.5067 71.3533 29.5933 71.31 29.675C71.1867 29.9133 71.0667 30.1533 70.96 30.4017C70.9067 30.525 70.8633 30.6517 70.815 30.775C70.73 30.99 70.6484 31.2033 70.5767 31.4233C70.53 31.5667 70.4933 31.7117 70.4517 31.8567C70.3933 32.0667 70.3367 32.2767 70.285 32.4917C70.2517 32.645 70.225 32.8017 70.1967 32.9583C70.1733 33.085 70.1417 33.21 70.1234 33.34H61.6667V16.6667H88.0634L95.5267 19.155C96.2071 19.3817 96.6661 20.0179 96.6667 20.735V21.6667H93.3334V25H96.6667V33.3333H93.215C93.1967 33.205 93.165 33.08 93.1417 32.9533C93.1133 32.795 93.0867 32.6383 93.0517 32.4833Z" fill="#008F39" fill-opacity="0.4"/>
</g>
</g>
<g id="Group_5">
<g id="Group_6">
<path id="Vector_3" d="M81.9261 30.4868C81.9257 30.4868 81.9253 30.4868 81.9253 30.4868C79.2786 30.3184 76.9872 32.3061 76.7803 34.9501C76.5924 37.6043 78.5911 39.9082 81.2453 40.0968C81.3586 40.0968 81.4753 40.1084 81.5886 40.1084C84.1132 40.1028 86.2063 38.1513 86.3886 35.6334C86.5774 32.9799 84.5795 30.6757 81.9261 30.4868ZM83.0651 35.3918C83.0063 36.2095 82.298 36.8261 81.4801 36.7718C80.663 36.714 80.0472 36.0055 80.1034 35.1884C80.1609 34.4126 80.8055 33.8115 81.5834 33.8084C81.6201 33.8084 81.6534 33.8084 81.6901 33.8084C82.507 33.8661 83.1224 34.5749 83.0651 35.3918Z" fill="#008F39" fill-opacity="0.4"/>
</g>
</g>
<g id="Group_7">
<g id="Group_8">
<path id="Vector_4" d="M55 20H45V23.3333H55V20Z" fill="#008F39" fill-opacity="0.4"/>
</g>
</g>
<g id="Group_9">
<g id="Group_10">
<path id="Vector_5" d="M51.6666 70H48.3333V73.3333H51.6666V70Z" fill="#008F39" fill-opacity="0.4"/>
</g>
</g>
</g>
<defs>
<clipPath id="clip0_233_1206">
<rect width="100" height="100" fill="white"/>
</clipPath>
</defs>
</svg>
