<svg width="150" height="150" viewBox="0 0 150 150" fill="none" xmlns="http://www.w3.org/2000/svg">
<g id="oil_eqtx5ur3vpp4 1" clip-path="url(#clip0_233_1197)">
<g id="Group">
<path id="Vector" d="M137.966 58.777C136.988 57.268 135.089 56.6504 133.409 57.2919L86.8459 75.1105L78.1845 66.4485C77.4703 65.7339 76.5012 65.3326 75.491 65.3326H62.5062V51.3224H73.9708C76.0746 51.3224 77.7802 49.6174 77.7802 47.5131C77.7802 45.4088 76.0746 43.7037 73.9708 43.7037H43.4225C41.3187 43.7037 39.6131 45.4088 39.6131 47.5131C39.6131 49.6174 41.3187 51.3224 43.4225 51.3224H54.8871V65.3326H46.9327L12.2306 50.9603C12.0848 50.8998 11.937 50.8526 11.7887 50.8115C9.96025 50.302 7.99819 51.2244 7.25359 53.0224L0.294188 69.8251C0.293172 69.8277 0.292156 69.8297 0.291141 69.8322C0.0900076 70.3183 -0.00344813 70.8222 0.000615167 71.3174C0.0112813 72.802 0.895048 74.2069 2.35275 74.8103C2.35834 74.8128 2.36444 74.8143 2.37053 74.8169L29.5169 86.0605V102.487C29.5169 104.592 31.2224 106.297 33.3262 106.297H93.1343C94.1446 106.297 95.1137 105.895 95.8278 105.181L137.464 63.5443C138.735 62.2725 138.944 60.285 137.966 58.777ZM8.78799 69.2283L12.835 59.4576L30.3819 66.7248C29.8414 67.3826 29.5164 68.2242 29.5164 69.1425V77.8146L8.78799 69.2283ZM91.5562 98.6776H37.135V83.7749C37.1462 83.6104 37.1452 83.4458 37.135 83.2833V72.9513H46.152C46.1591 72.9513 46.1657 72.9523 46.1728 72.9523C46.1774 72.9523 46.182 72.9513 46.186 72.9513H73.9129L83.2057 82.2446C84.2687 83.3087 85.8575 83.6459 87.2608 83.109L119.437 70.7962L91.5562 98.6776Z" fill="#008F39" fill-opacity="0.4"/>
<path id="Vector_2" d="M142.895 84.1731C142.895 84.1731 135.79 94.4593 135.79 98.3829C135.79 102.308 138.971 105.489 142.895 105.489C146.819 105.489 150 102.307 150 98.3829C150 94.4593 142.895 84.1731 142.895 84.1731Z" fill="#008F39" fill-opacity="0.4"/>
</g>
</g>
<defs>
<clipPath id="clip0_233_1197">
<rect width="150" height="150" fill="white"/>
</clipPath>
</defs>
</svg>
