<svg width="120" height="120" viewBox="0 0 120 120" fill="none" xmlns="http://www.w3.org/2000/svg">
<g id="crane_truck_ir17jgyi4zyn 1" clip-path="url(#clip0_233_1224)">
<g id="Group">
<path id="Vector" d="M118.97 48.1392L105.938 35.1063V29.5312C105.938 23.7157 101.206 18.9844 95.3906 18.9844C89.5751 18.9844 84.8438 23.7157 84.8438 29.5312V33.0469H73.8281C71.8866 33.0469 70.3125 34.6209 70.3125 36.5625V43.2061L24.503 5.72555C24.5023 5.72484 24.5016 5.72437 24.5006 5.72367L24.492 5.71641L24.4917 5.71688C23.8854 5.22023 23.1105 4.92188 22.2656 4.92188H3.51562C1.57406 4.92188 0 6.49594 0 8.4375V22.5C0 24.4416 1.57406 26.0156 3.51562 26.0156H9.375V30.8613C9.375 34.8436 11.388 38.49 14.76 40.6151C15.7294 41.2261 16.6552 42.5046 16.3472 44.2603C16.1058 45.6356 14.9325 46.8089 13.557 47.0501C12.4809 47.2399 11.4422 46.9685 10.6324 46.2884C9.83344 45.6173 9.375 44.6351 9.375 43.5938C9.375 41.6522 7.80094 40.0781 5.85938 40.0781C3.91781 40.0781 2.34375 41.6522 2.34375 43.5938C2.34375 46.7177 3.71672 49.6627 6.11086 51.6731C8.02477 53.2802 10.4271 54.139 12.9042 54.139C13.5244 54.139 14.1495 54.0853 14.7724 53.9759C19.0298 53.2287 22.5251 49.7337 23.2725 45.476C24.0218 41.2059 22.152 36.963 18.5091 34.6671C17.1923 33.837 16.4062 32.4143 16.4062 30.8613V26.0156H20.5078L46.875 61.1719V70.5469H3.51562C1.57406 70.5469 0 72.1209 0 74.0625V97.5C0 99.4416 1.57406 101.016 3.51562 101.016H9.42445C10.0254 108.87 16.6036 115.078 24.6094 115.078C32.6152 115.078 39.1931 108.87 39.7943 101.016H80.2059C80.8069 108.87 87.3851 115.078 95.3909 115.078C103.397 115.078 109.975 108.87 110.576 101.016H116.484C118.426 101.016 120 99.4416 120 97.5V50.625C120 49.6924 119.629 48.7983 118.97 48.1392ZM112.969 61.1719H91.875V40.0781H100.966L112.969 52.0812V61.1719ZM91.875 29.5312C91.875 27.5927 93.4521 26.0156 95.3906 26.0156C97.3291 26.0156 98.9062 27.5927 98.9062 29.5312V33.0469H91.875V29.5312ZM7.03125 11.9531H18.75V18.9844H7.03125V11.9531ZM25.7812 15.8562L70.3125 52.2909V56.4844H52.1484L25.7812 21.3281V15.8562ZM53.9062 63.5156H70.3125V70.5469H53.9062V63.5156ZM24.6094 108.047C20.0862 108.047 16.4062 104.367 16.4062 99.8438C16.4062 95.3205 20.0862 91.6406 24.6094 91.6406C29.1326 91.6406 32.8125 95.3205 32.8125 99.8438C32.8125 104.367 29.1326 108.047 24.6094 108.047ZM24.6094 84.6094C18.2845 84.6094 12.8489 88.4843 10.5485 93.9844H7.03125V77.5781H70.3125V93.9844H38.6702C36.3698 88.4843 30.9342 84.6094 24.6094 84.6094ZM95.3906 108.047C90.8674 108.047 87.1875 104.367 87.1875 99.8438C87.1875 95.3205 90.8674 91.6406 95.3906 91.6406C99.9138 91.6406 103.594 95.3205 103.594 99.8438C103.594 104.367 99.9138 108.047 95.3906 108.047ZM109.451 93.9844C107.151 88.4843 101.715 84.6094 95.3906 84.6094C89.0658 84.6094 83.6301 88.4843 81.3298 93.9844H77.3438V40.0781H84.8438V64.6875C84.8438 66.6291 86.4178 68.2031 88.3594 68.2031H112.969V75.2344H109.453C107.512 75.2344 105.938 76.8084 105.938 78.75C105.938 80.6916 107.512 82.2656 109.453 82.2656H112.969V93.9844H109.451Z" fill="#008F39" fill-opacity="0.4"/>
</g>
</g>
<defs>
<clipPath id="clip0_233_1224">
<rect width="120" height="120" fill="white"/>
</clipPath>
</defs>
</svg>
