<svg width="110" height="110" viewBox="0 0 110 110" fill="none" xmlns="http://www.w3.org/2000/svg">
<g id="finish_flag_dz6go6zwjqxi 1" clip-path="url(#clip0_233_1304)">
<path id="Vector" d="M104.006 48.9275L80.9476 11.1262C79.9233 9.44227 77.7691 8.8413 76.0011 9.71959C73.41 10.9479 71.2412 11.7534 69.1548 12.2557C63.2366 13.6743 56.7082 13.0438 50.7752 10.4846C43.3297 7.13418 35.175 6.27175 27.1797 7.99438C20.2147 9.48802 13.9403 12.8254 8.873 17.7008L7.66295 15.7125C7.59527 15.5927 7.51409 15.4881 7.42059 15.3998C7.53582 14.9947 7.57568 14.5543 7.53007 14.0954C7.33769 12.1604 5.60721 10.7301 3.65855 10.9238C1.7237 11.1162 0.293534 12.8468 0.487287 14.7956C0.649152 16.4237 1.90018 17.6915 3.44157 17.9319C3.47752 18.0131 3.52961 18.1055 3.57937 18.1853L55.1445 102.791C55.6325 103.6 56.5305 104.003 57.4077 103.916C57.7549 103.882 58.0963 103.777 58.4131 103.577C59.5404 102.888 59.887 101.433 59.2129 100.306L35.9031 62.0939C45.6461 52.2124 60.4222 49.4081 73.211 55.18C77.8159 57.2384 82.9204 58.2496 87.9651 58.0988C88.7226 58.0803 89.462 58.0208 90.2139 57.946C94.4861 57.5213 98.7063 56.2726 102.5 54.2781C103.436 53.7914 104.121 52.9221 104.402 51.9246C104.693 50.8971 104.543 49.802 104.006 48.9275ZM89.201 53.2814L81.8488 41.1064C82.1836 41.0871 82.5181 41.0538 82.8516 41.0207C86.0533 40.7024 89.2052 39.8828 92.1575 38.6197L99.4116 50.5084C96.1512 52.0702 92.7017 53.0031 89.201 53.2814ZM59.2315 47.4747L51.8796 35.3136C56.9476 35.2463 62.0796 36.2537 66.9213 38.429C67.0236 38.4757 67.1116 38.5088 67.2149 38.5554L74.4634 50.5283C69.59 48.4548 64.4275 47.4214 59.2315 47.4747ZM29.3449 25.3935C33.7921 23.3211 38.641 22.1923 43.5367 22.0852L51.3752 35.0409C46.4684 35.177 41.6485 36.3168 37.2014 38.3903L29.3449 25.3935ZM48.8465 14.8379C48.8465 14.8379 48.8603 14.8365 48.8617 14.8503L48.8769 14.8627C50.5216 15.5712 52.2091 16.1478 53.9128 16.5972L58.9436 24.9252C54.0288 22.7153 48.8266 21.7138 43.691 21.8028L37.7519 11.9767C41.5075 12.278 45.2567 13.2266 48.8465 14.8379ZM59.649 25.5157C63.7401 27.2176 68.2232 28.0515 72.6646 27.9049C72.9443 27.8921 73.2377 27.8768 73.5173 27.863L81.3737 40.8587C76.661 41.102 71.8817 40.2558 67.4008 38.3117L59.649 25.5157ZM70.2468 16.8857C72.4718 16.3545 74.7383 15.5393 77.3451 14.3384L83.9303 25.1406C80.641 26.5638 77.1806 27.3862 73.6892 27.6067L67.516 17.4103C68.4441 17.2751 69.3545 17.1009 70.2468 16.8857ZM22.3764 14.4041L28.9524 25.2641C24.9937 27.1485 21.3468 29.7742 18.232 33.0923L11.3954 21.8646C14.5861 18.6097 18.3282 16.1001 22.3764 14.4041ZM26.4313 46.5602C29.5174 43.2449 33.1519 40.6345 37.0968 38.7514L44.2957 50.6456C40.253 52.3979 36.5619 54.8595 33.3518 57.9201L26.4313 46.5602Z" fill="#008F39" fill-opacity="0.4"/>
</g>
<defs>
<clipPath id="clip0_233_1304">
<rect width="100" height="100" fill="white" transform="translate(0 9.89307) rotate(-5.67762)"/>
</clipPath>
</defs>
</svg>
