<svg width="25" height="22" viewBox="0 0 25 22" fill="none" xmlns="http://www.w3.org/2000/svg">
<path id="Cart_2_" d="M12.7038 19.7917C12.7038 19.2172 12.226 18.75 11.6385 18.75C11.051 18.75 10.5732 19.2172 10.5732 19.7917C10.5732 20.3661 11.051 20.8333 11.6385 20.8333C12.226 20.8333 12.7038 20.3661 12.7038 19.7917ZM19.6286 19.7917C19.6286 19.2172 19.1507 18.75 18.5632 18.75C17.9757 18.75 17.4979 19.2172 17.4979 19.7917C17.4979 20.3661 17.9757 20.8333 18.5632 20.8333C19.1507 20.8333 19.6286 20.3661 19.6286 19.7917ZM20.3977 15.2763C20.3229 15.4852 20.1213 15.625 19.8949 15.625H9.24148C8.65394 15.625 8.17614 16.0922 8.17614 16.6667C8.17614 17.2411 8.65394 17.7083 9.24148 17.7083H18.5632C19.738 17.7083 20.6939 18.643 20.6939 19.7917C20.6939 20.9404 19.738 21.875 18.5632 21.875C17.3884 21.875 16.4325 20.9404 16.4325 19.7917C16.4325 19.412 16.5385 19.0568 16.7207 18.75H13.481C13.6632 19.0568 13.7692 19.412 13.7692 19.7917C13.7692 20.9404 12.8133 21.875 11.6385 21.875C10.4637 21.875 9.50781 20.9404 9.50781 19.7917C9.50781 19.412 9.61381 19.0568 9.79599 18.75H9.24148C8.06667 18.75 7.1108 17.8154 7.1108 16.6667C7.1108 15.5904 7.95002 14.7021 9.02228 14.5943L4.19842 1.3875C4.12278 1.18073 3.92116 1.04167 3.69664 1.04167H1.25142C0.957386 1.04167 0.71875 0.808333 0.71875 0.520833C0.71875 0.233333 0.957386 0 1.25142 0H3.69664C4.37021 0 4.97505 0.416667 5.20144 1.03698L6.34482 4.16667H23.6236C23.7962 4.16667 23.9581 4.24844 24.058 4.3862C24.1578 4.52396 24.1834 4.70026 24.1264 4.85964L20.3977 15.2763Z" fill="white"/>
</svg>
