<svg width="27" height="25" viewBox="0 0 27 25" fill="none" xmlns="http://www.w3.org/2000/svg">
<g id="mail_xfl291p2rb9o" clip-path="url(#clip0_268_64)">
<path id="Vector" d="M14.8478 14.8503L19.0879 18.6279H8.4449L12.685 14.8503H14.8478ZM7.49998 11.3463L7.50402 17.8808L11.5154 14.307L7.49998 11.3463ZM26.5455 12.5C26.5455 19.3925 20.8106 25 13.7614 25C6.71221 25 0.977295 19.3925 0.977295 12.5C0.977295 5.60752 6.71221 0 13.7614 0C20.8106 0 26.5455 5.60752 26.5455 12.5ZM21.2271 18.2734V10.1575C21.2271 9.96538 21.1308 9.78555 20.9694 9.67607L14.8949 5.55527C14.1988 5.08311 13.3342 5.0832 12.6384 5.55532L6.55835 9.68047C6.39685 9.79004 6.30057 9.97002 6.30072 10.1622L6.30576 18.2734C6.30576 19.115 6.98522 19.7998 7.82038 19.7998H19.7125C20.5476 19.7998 21.2271 19.1151 21.2271 18.2734ZM16.0024 14.2936L20.0286 17.8806V11.1474L16.0024 14.2936ZM14.8699 13.6785L19.469 10.0845L14.2118 6.51816C13.9247 6.32349 13.6086 6.32344 13.3218 6.51812L7.91631 10.1855L12.6535 13.6785L14.8699 13.6785Z" fill="white"/>
</g>
<defs>
<clipPath id="clip0_268_64">
<rect width="25.5682" height="25" fill="white" transform="translate(0.977295)"/>
</clipPath>
</defs>
</svg>
