<svg width="40" height="40" viewBox="0 0 40 40" fill="none" xmlns="http://www.w3.org/2000/svg">
<g id="mail_xfl291p2rb9o" clip-path="url(#clip0_234_303)">
<path id="Vector" d="M21.6997 23.7605L28.333 29.8047H11.6827L18.3161 23.7605H21.6997ZM10.2044 18.1541L10.2107 28.6093L16.4862 22.8913L10.2044 18.1541ZM40 20C40 31.028 31.028 40 20 40C8.97195 40 0 31.028 0 20C0 8.97203 8.97195 0 20 0C31.028 0 40 8.97203 40 20ZM31.6797 29.2374V16.252C31.6797 15.9446 31.5291 15.6569 31.2766 15.4817L21.7734 8.88844C20.6844 8.13297 19.3316 8.13313 18.2432 8.88852L8.73125 15.4887C8.47859 15.6641 8.32797 15.952 8.3282 16.2595L8.33609 29.2374C8.33609 30.5841 9.39906 31.6797 10.7056 31.6797H29.3102C30.6167 31.6797 31.6797 30.5841 31.6797 29.2374ZM23.506 22.8698L29.8047 28.6089V17.8358L23.506 22.8698ZM21.7342 21.8855L28.9292 16.1352L20.7046 10.4291C20.2555 10.1176 19.761 10.1175 19.3123 10.429L10.8557 16.2969L18.2668 21.8856L21.7342 21.8855Z" fill="#008F39"/>
</g>
<defs>
<clipPath id="clip0_234_303">
<rect width="40" height="40" fill="white"/>
</clipPath>
</defs>
</svg>
