<svg width="107" height="39" viewBox="0 0 107 39" fill="none" xmlns="http://www.w3.org/2000/svg">
<g id="&#208;&#155;&#208;&#190;&#208;&#179;&#208;&#190; &#209;&#128;&#208;&#181;&#208;&#176;&#208;&#187;&#208;&#191;&#209;&#128;&#208;&#190;">
<g id="&#208;&#161;&#208;&#187;&#208;&#190;&#208;&#185;_x0020_1">
<g id="_120474464">
<path id="Vector" d="M14.1195 19.7404L14.0323 19.7695L13.9742 19.8276L13.887 19.8567L13.7999 19.9148L13.7127 19.9438L13.6546 20.0019C13.5675 20.031 13.4803 20.06 13.3931 20.1181L13.306 20.1472C13.3931 20.1762 13.4513 20.2053 13.5384 20.2343C13.5965 20.2634 13.6546 20.2924 13.6837 20.3215L13.7999 20.3505L13.8289 20.3796H13.858L13.9161 20.4087L13.9451 20.4377L13.9742 20.4668H14.0323L14.0614 20.4958L14.0904 20.5249C14.5552 20.7863 14.9329 21.135 15.1653 21.5126C15.2525 21.687 15.3397 21.8613 15.3978 22.0356V22.0646C15.543 22.3842 15.6592 22.7909 15.7173 23.0815L14.0614 27.9623H12.9283H10.8075C10.8075 27.9623 10.8656 26.5387 10.7784 25.3185C10.6913 24.2726 10.4589 23.4882 10.1102 22.9653C9.73255 22.3842 9.00624 22.0937 7.9313 22.0937H7.08878V22.0646H5.89763V27.9623H3.71871L0 27.9913L0.755362 25.7833L2.3823 20.9316L5.40374 10.8795C8.10562 10.8214 12.4635 10.8504 14.3228 12.1287C15.5721 12.9712 16.1531 14.2496 16.1531 15.9346C16.1531 17.6487 15.4849 18.8979 14.1195 19.7404ZM0.755362 20.8735L3.77681 10.8795H4.59028L0.842519 23.0815L0.755362 20.8735ZM7.08878 18.375H8.74477C10.1683 18.375 10.8946 17.7939 10.8946 16.6318C10.8946 16.2251 10.8365 15.9055 10.6913 15.6731C10.6332 15.5569 10.546 15.4698 10.4298 15.4116C10.1102 15.1792 9.55823 15.063 8.77382 15.063H5.89763V18.375H7.08878Z" fill="white"/>
<path id="Vector_2" d="M41.7775 10.8513H42.4167L45.8449 20.2352L43.5207 27.9922L42.6201 25.6099H37.3325L38.4075 22.0655H41.458L39.8891 17.1847L41.7775 10.8513Z" fill="white"/>
<path id="Vector_3" d="M22.8642 21.1354V23.4305H27.3092H29.7786L28.2679 27.9336H24.8397H24.8688H22.3993H17.6638H15.2524L17.6638 20.8158L20.6852 10.8218H30.8826V15.1796H26.2342H23.3H22.8642V17.3295H24.9269H25.5951H30.8826V19.9152L30.5049 21.1354H24.462H22.8642Z" fill="white"/>
<path id="Vector_4" fill-rule="evenodd" clip-rule="evenodd" d="M40.6156 10.8513L35.4443 27.9632H34.3693H29.4595L35.0375 10.8513H40.6156Z" fill="white"/>
<path id="Vector_5" fill-rule="evenodd" clip-rule="evenodd" d="M55.6356 10.851H59.4124C58.1632 7.48088 56.943 4.13985 55.6937 0.798828C52.527 4.1689 49.2731 7.45182 46.1355 10.8219L49.8542 10.851L44.7119 27.9338C45.8159 27.9338 46.9199 27.9338 48.0239 27.9338C49.1569 27.9338 50.2609 27.9338 51.394 27.9047C52.498 27.9047 53.631 27.9047 54.735 27.9047C55.868 27.9047 57.0011 27.9047 58.1341 27.9047C58.628 26.2197 59.1219 24.5637 59.5867 22.9077C57.0301 22.9077 54.5607 22.9077 52.0041 22.9077C52.0041 22.9077 54.4445 14.6859 55.6356 10.851Z" fill="#F7C713"/>
<path id="Vector_6" d="M88.6097 19.3929V19.4219L88.5225 19.451L88.4644 19.5091L88.3773 19.5381L88.2901 19.5962L88.203 19.6253L88.1449 19.6543C88.0577 19.7125 87.9705 19.7415 87.8834 19.7706L87.7962 19.8287C87.8834 19.8577 87.9415 19.8868 88.0286 19.9158C88.0868 19.9449 88.1449 19.9739 88.1739 19.9739L88.2901 20.032L88.3192 20.0611H88.3482L88.4063 20.0901L88.4354 20.1192H88.4644L88.5225 20.1482L88.5516 20.1773H88.5806C89.0745 20.4678 89.4232 20.8164 89.6556 21.1941C89.7427 21.3684 89.8299 21.5428 89.888 21.7171V21.7461C90.0333 22.0657 90.1495 22.4434 90.2076 22.763L88.5516 27.6147H87.4185H85.2977C85.2977 27.6147 85.3558 26.2202 85.2687 25C85.1815 23.9541 84.9491 23.1697 84.6005 22.6467C84.2228 22.0657 83.4965 21.7461 82.4215 21.7461H81.579H80.3879V27.6147H78.2089L74.4902 27.6438L75.2456 25.4648L76.8725 20.6131L79.894 10.561C82.5958 10.5028 86.9537 10.5028 88.8131 11.8102C90.0623 12.6527 90.6434 13.931 90.6434 15.587C90.6434 17.3011 89.9752 18.5794 88.6097 19.3929ZM75.2456 20.555L78.267 10.561H79.0805L75.3328 22.763L75.2456 20.555ZM81.579 18.0565H83.235C84.6586 18.0565 85.3849 17.4754 85.3849 16.2843C85.3849 15.9066 85.3268 15.587 85.1815 15.3546C85.1234 15.2384 85.0363 15.1512 84.92 15.0931C84.6005 14.8607 84.0485 14.7445 83.2641 14.7445H80.3879V18.0565H81.579Z" fill="white"/>
<path id="Vector_7" d="M60.9514 14.3366V10.647H62.0554L60.9514 14.3366Z" fill="white"/>
<path id="Vector_8" d="M73.3865 20.5544C71.44 21.7165 67.2565 21.7746 65.0485 21.8036V27.6722H62.8986L59.1799 27.7013L59.9062 25.4933L61.5622 20.6706L64.5546 10.6185C67.2855 10.5604 71.6143 10.5604 73.5028 11.8387C74.723 12.6812 75.304 13.9886 75.304 15.6445C75.304 17.2715 74.8101 19.7409 73.3865 20.5544ZM66.2397 18.114V18.0849H67.8956C69.3483 18.0849 70.0746 17.5039 70.0746 16.3418C70.0746 15.9641 69.9874 15.6445 69.8712 15.4121C69.784 15.2959 69.6969 15.2088 69.6097 15.1216C69.2902 14.9182 68.7382 14.802 67.9247 14.802H65.0485V18.114H66.2397Z" fill="white"/>
<path id="Vector_9" d="M60.9514 17.2135L62.927 10.6187H63.7404L60.9514 19.683V17.2135Z" fill="white"/>
<path id="Vector_10" d="M94.3039 11.5476C94.5944 11.4023 94.885 11.2571 95.2045 11.1409C96.2214 10.7341 97.3254 10.5308 98.5746 10.5308C99.8239 10.5308 100.957 10.7341 102.003 11.1409C103.02 11.5476 103.891 12.1286 104.588 12.855C105.315 13.6103 105.896 14.5109 106.273 15.5568C106.68 16.6027 106.855 17.7939 106.855 19.0722C106.855 20.7572 106.535 22.2679 105.838 23.5753C105.17 24.8826 104.182 25.8995 102.903 26.6258C101.654 27.3521 100.202 27.7007 98.5746 27.7007C97.8483 27.7007 97.1801 27.6426 96.5409 27.4974L97.7611 23.4881C98.0226 23.5462 98.2841 23.6043 98.5746 23.6043C99.5624 23.6043 100.376 23.1976 100.957 22.3841C101.567 21.5707 101.858 20.4667 101.858 19.0722C101.858 17.7067 101.567 16.6027 100.957 15.7892C100.376 14.9758 99.5624 14.569 98.5746 14.569C97.5868 14.569 96.7734 14.9758 96.1633 15.8183C95.5532 16.6318 95.2626 17.7358 95.2626 19.0722C95.2626 20.4376 95.5532 21.5416 96.1633 22.3551C96.3376 22.5875 96.5119 22.7909 96.7443 22.9652L95.466 27.2068C94.362 26.8001 93.4323 26.19 92.6189 25.3184C91.8635 24.534 91.3115 23.6334 90.9338 22.6166L94.3039 11.5476Z" fill="white"/>
<path id="Vector_11" d="M17.0249 14.5114V10.8218H18.1579L17.0249 14.5114Z" fill="white"/>
<path id="Vector_12" d="M17.054 17.4167L19.0295 10.8218H19.843L17.054 19.9152V17.4167Z" fill="white"/>
<path id="Vector_13" d="M45.7575 31.0134H44.944V33.1633V33.4829H44.6245H44.5664H44.392L44.3049 33.3086C44.1887 33.0761 44.0725 32.9599 43.9272 32.8728C43.7238 32.7856 43.4043 32.7566 42.9394 32.7566C42.4746 32.7566 42.155 32.7856 41.8935 32.8147C41.6902 32.8728 41.5449 32.9309 41.3997 33.0471C41.2544 33.1633 41.1382 33.3086 41.0801 33.57C40.9929 33.8606 40.9639 34.2673 40.9639 34.7902C40.9639 35.3422 40.9929 35.7199 41.051 36.0104C41.0801 36.2429 41.1672 36.3881 41.2834 36.5334C41.4287 36.6496 41.574 36.7658 41.8064 36.8239C42.0679 36.882 42.4455 36.9111 42.9394 36.9111C43.4043 36.9111 43.7238 36.882 43.9563 36.7949C44.1306 36.7077 44.2758 36.5915 44.363 36.3591L44.4502 36.2138H44.6535H44.7116H45.0312V36.5043V36.7949H45.7575V31.0134ZM43.4333 33.3957C44.0144 33.3957 44.392 33.4829 44.6245 33.6862C44.8859 33.9187 44.944 34.2673 44.944 34.8193C44.944 35.1389 44.944 35.3422 44.8859 35.5165C44.8278 35.749 44.7407 35.8942 44.5954 35.9814V36.0104C44.4792 36.0976 44.2758 36.1557 44.0434 36.1848C43.8401 36.2429 43.6076 36.2429 43.3462 36.2429C42.707 36.2429 42.3584 36.1848 42.0969 35.9523C41.8354 35.7199 41.7773 35.3713 41.7773 34.7902C41.7773 34.2382 41.8645 33.8896 42.126 33.6862V33.6572C42.3874 33.4538 42.7942 33.3957 43.4333 33.3957ZM47.0358 32.8728V36.7949H47.8493V32.8728H47.0358ZM47.0358 31.0134V31.6816H47.8493V31.0134H47.0358ZM53.1078 32.8728V33.1633V33.4829H52.7882H52.7301H52.5267L52.4396 33.3086C52.3233 33.1052 52.2071 32.9599 52.0328 32.8728C51.8295 32.7856 51.5389 32.7566 51.0741 32.7566C50.7255 32.7566 50.4059 32.7856 50.1444 32.8147C49.912 32.8437 49.7377 32.9018 49.6215 32.9599C49.4181 33.0761 49.2728 33.2214 49.1857 33.4538C49.0695 33.7153 49.0404 34.122 49.0404 34.7031C49.0404 35.2551 49.0695 35.6328 49.1276 35.9233C49.1857 36.1557 49.3019 36.301 49.4472 36.4172C49.5634 36.5334 49.7377 36.6205 49.9701 36.6496C50.2316 36.7077 50.5802 36.7367 51.0741 36.7367C51.5099 36.7367 51.8004 36.7077 51.9747 36.6205C52.149 36.5334 52.2652 36.4172 52.3815 36.1848L52.4686 36.0395H52.672H52.7301H53.0206V36.33V36.7367C53.0206 37.0854 53.0206 37.2887 52.9916 37.434C52.9625 37.6374 52.9044 37.7536 52.8172 37.8988C52.672 38.0732 52.4977 38.1894 52.2362 38.2475C52.0328 38.3056 51.7423 38.3056 51.3356 38.3056C50.9288 38.3056 50.6674 38.2765 50.464 38.1894C50.2606 38.1313 50.1444 38.0151 50.0573 37.8407H49.1566C49.1857 37.9279 49.2147 38.0151 49.2438 38.1022C49.3019 38.2475 49.36 38.3637 49.4762 38.4508V38.4799C49.5924 38.5961 49.7667 38.7123 50.0282 38.7704C50.3187 38.8285 50.7255 38.8576 51.3356 38.8576C51.7714 38.8576 52.12 38.8576 52.4105 38.8285C52.672 38.7704 52.9044 38.7414 53.0787 38.6542C53.224 38.5961 53.3692 38.5089 53.4854 38.3637C53.6017 38.2475 53.6888 38.0732 53.7179 37.8988H53.7469C53.776 37.7536 53.805 37.6374 53.8341 37.4921C53.8341 37.3468 53.8341 37.1144 53.8341 36.7367V32.8728H53.1078ZM51.4808 33.4248C51.7132 33.4248 51.9166 33.4248 52.0909 33.4538C52.2943 33.4829 52.4396 33.541 52.5558 33.5991H52.5848C52.7591 33.7153 52.8753 33.8315 52.9334 34.0639C52.9916 34.2382 53.0206 34.4416 53.0206 34.7612C53.0206 35.0227 52.9916 35.197 52.9625 35.3713C52.9044 35.5456 52.8172 35.6909 52.701 35.8071H52.672C52.5558 35.8942 52.3815 35.9814 52.149 36.0104C51.9457 36.0685 51.7132 36.0685 51.4227 36.0685C50.8126 36.0685 50.4349 36.0104 50.2025 35.8071C49.912 35.6037 49.8539 35.2551 49.8539 34.7321C49.8539 34.2092 49.9411 33.8896 50.2316 33.6572C50.493 33.4829 50.8707 33.4248 51.4808 33.4248ZM55.0833 32.8728V36.7949H55.8968V32.8728H55.0833ZM55.0833 31.0134V31.6816H55.8968V31.0134H55.0833ZM57.6109 31.8269V32.5823V32.8728H57.2913H56.8555V33.4829H57.2913H57.6109V33.7734V35.1098C57.6109 35.6909 57.6109 35.6909 57.6109 35.8071C57.6399 36.0395 57.669 36.1848 57.698 36.33C57.7271 36.4172 57.7852 36.5043 57.8433 36.5915C57.9595 36.7077 58.0757 36.7949 58.25 36.8239C58.4534 36.882 58.773 36.9111 59.2088 36.9111C59.6445 36.9111 59.9932 36.882 60.2256 36.7949C60.429 36.7367 60.5452 36.6205 60.6614 36.4753C60.7485 36.33 60.8066 36.2138 60.8357 36.0395C60.8647 35.8942 60.8938 35.7199 60.8938 35.4875H60.1965C60.1965 35.749 60.1384 35.9523 60.0222 36.0976C59.8479 36.2719 59.6446 36.33 59.325 36.33C59.1216 36.33 58.9763 36.301 58.8601 36.2429C58.7149 36.1848 58.5987 36.0685 58.5406 35.9233C58.4825 35.8071 58.4534 35.749 58.4534 35.6037C58.4243 35.4875 58.4244 35.3422 58.4244 35.1098V33.7734V33.4829H58.7439H60.7195V32.8728H58.7439H58.4244V32.5823V31.8269H57.6109ZM62.8694 33.6862C62.9275 33.5119 63.0437 33.3957 63.247 33.3086C63.4504 33.2505 63.77 33.2214 64.322 33.2214C64.8159 33.2214 65.1355 33.2505 65.3388 33.4248C65.5712 33.6281 65.6293 33.8896 65.6293 34.3545V34.5869V34.9064H65.3098H65.2517H65.0773L64.9902 34.7902C64.9321 34.674 64.8449 34.6159 64.7578 34.5869C64.6416 34.5578 64.4382 34.5288 64.1477 34.5288C63.6247 34.5288 63.2761 34.5578 63.0146 34.5578C62.7822 34.5869 62.6079 34.6159 62.4626 34.674C62.2593 34.7321 62.114 34.8483 61.9978 34.9936C61.9106 35.197 61.8525 35.4584 61.8525 35.8071C61.8525 36.2429 61.9106 36.5334 62.114 36.6786C62.2883 36.853 62.666 36.9111 63.218 36.9111C63.6828 36.9111 64.0024 36.9111 64.2348 36.882C64.4382 36.853 64.5544 36.8239 64.6416 36.7949C64.7287 36.7367 64.8159 36.6786 64.874 36.6205C64.9321 36.5624 64.9611 36.4753 65.0192 36.3591C64.7868 36.4172 64.4382 36.4462 63.9734 36.4462C63.5376 36.4462 63.247 36.4172 63.0727 36.33C62.7822 36.1848 62.666 35.9814 62.666 35.6618C62.666 35.5165 62.695 35.4003 62.7532 35.2841C62.8403 35.1679 62.9275 35.0808 63.0437 35.0227C63.1308 34.9646 63.2761 34.9355 63.4795 34.9064C63.6538 34.8774 63.8571 34.8774 64.0896 34.8774C64.4091 34.8774 64.6125 34.8774 64.7868 34.8774C64.9902 34.9064 65.1064 34.9355 65.1936 34.9646C65.3098 35.0227 65.426 35.1098 65.4841 35.226C65.5422 35.3422 65.6003 35.4875 65.6003 35.6328C65.6003 35.8652 65.5422 36.0395 65.3679 36.1848H65.6584V36.4753V36.7949H66.4138V34.3835C66.4138 33.9768 66.4138 33.7153 66.3556 33.5119C66.3266 33.3376 66.2685 33.1924 66.1813 33.0761C66.0651 32.9599 65.9489 32.8728 65.7456 32.8147C65.5131 32.7566 65.1354 32.7566 64.5253 32.7566C63.9443 32.7566 63.4795 32.7856 63.1599 32.8147C62.8403 32.8728 62.6369 32.9309 62.5207 32.989L62.4917 33.018C62.3464 33.1052 62.2302 33.2214 62.1431 33.3667C62.114 33.4538 62.0559 33.541 62.0559 33.6862H62.8694ZM67.663 31.0134V36.7949H68.5055V31.0134H67.663ZM74.7518 33.6862C74.8099 33.5119 74.897 33.3957 75.1004 33.3086C75.3328 33.2505 75.6234 33.2214 76.1754 33.2214C76.6983 33.2214 76.9888 33.2505 77.1922 33.4248C77.4246 33.6281 77.4827 33.8896 77.4827 34.3545V34.5869V34.9064H77.1631H77.105H76.9598L76.8726 34.7902C76.7855 34.674 76.7274 34.6159 76.6402 34.5869C76.4949 34.5578 76.3206 34.5288 76.0301 34.5288C75.5072 34.5288 75.1585 34.5578 74.8971 34.5578C74.6356 34.5869 74.4903 34.6159 74.3451 34.674H74.316C74.1126 34.7321 73.9674 34.8483 73.8802 34.9936C73.764 35.197 73.735 35.4584 73.735 35.8071C73.735 36.2429 73.7931 36.5334 73.9674 36.6786C74.1707 36.853 74.5194 36.9111 75.1004 36.9111C75.5653 36.9111 75.8848 36.9111 76.1172 36.882C76.2916 36.853 76.4078 36.8239 76.4949 36.7949C76.6111 36.7367 76.6692 36.6786 76.7273 36.6205C76.7855 36.5624 76.8436 36.4753 76.8726 36.3591C76.6402 36.4172 76.3206 36.4462 75.8558 36.4462C75.42 36.4462 75.1295 36.4172 74.9261 36.33C74.6356 36.1848 74.5484 35.9814 74.5484 35.6618C74.5484 35.5165 74.5775 35.4003 74.6356 35.2841C74.6937 35.1679 74.7808 35.0808 74.9261 35.0227C75.0133 34.9646 75.1585 34.9355 75.3619 34.9064C75.5072 34.8774 75.7105 34.8774 75.972 34.8774C76.2625 34.8774 76.4949 34.8774 76.6692 34.8774C76.8436 34.9064 76.9598 34.9355 77.0469 34.9646C77.1922 35.0227 77.2793 35.1098 77.3375 35.226C77.4246 35.3422 77.4537 35.4875 77.4537 35.6328C77.4537 35.8652 77.3956 36.0395 77.2503 36.1848H77.5408V36.4753V36.7949H78.2962V34.3835C78.2962 33.9768 78.2671 33.7153 78.2381 33.5119C78.18 33.3376 78.1219 33.1924 78.0347 33.0761C77.9185 32.9599 77.8023 32.8728 77.628 32.8147C77.3665 32.7566 77.0179 32.7566 76.4078 32.7566C75.7977 32.7566 75.3619 32.7856 75.0133 32.8147C74.7227 32.8728 74.4903 32.9309 74.3741 32.989V33.018C74.1998 33.1052 74.0836 33.2214 74.0255 33.3667C73.9674 33.4538 73.9383 33.541 73.9093 33.6862H74.7518ZM83.5256 32.8728V33.1633V33.4829H83.206H83.1479H82.9446L82.8574 33.3086C82.7412 33.1052 82.625 32.9599 82.4507 32.8728C82.2473 32.7856 81.9568 32.7566 81.4919 32.7566C81.1143 32.7566 80.8237 32.7856 80.5623 32.8147C80.3298 32.8437 80.1555 32.9018 80.0393 32.9599C79.836 33.0761 79.6907 33.2214 79.6035 33.4538C79.4873 33.7153 79.4292 34.122 79.4292 34.7031C79.4292 35.2551 79.4583 35.6328 79.5454 35.9233C79.6035 36.1557 79.6907 36.301 79.865 36.4172C79.9812 36.5334 80.1555 36.6205 80.388 36.6496C80.6494 36.7077 80.9981 36.7367 81.4629 36.7367C81.8987 36.7367 82.1892 36.7077 82.3926 36.6205C82.5669 36.5334 82.6831 36.4172 82.7993 36.1848L82.8865 36.0395H83.0608H83.1189H83.4384V36.33V36.7367C83.4384 37.0854 83.4385 37.2887 83.4094 37.434C83.3803 37.6374 83.3222 37.7536 83.206 37.8988C83.0898 38.0732 82.9155 38.1894 82.654 38.2475C82.4507 38.3056 82.1601 38.3056 81.7534 38.3056C81.3467 38.3056 81.0562 38.2765 80.8528 38.1894C80.6494 38.1313 80.5332 38.0151 80.4751 37.8407H79.5745C79.6035 37.9279 79.6326 38.0151 79.6616 38.1022C79.6907 38.2475 79.7779 38.3637 79.865 38.4508V38.4799C80.0103 38.5961 80.1846 38.7123 80.4461 38.7704C80.7366 38.8285 81.1433 38.8576 81.7244 38.8576C82.1892 38.8576 82.5378 38.8576 82.8284 38.8285C83.0898 38.7704 83.3222 38.7414 83.4966 38.6542C83.6418 38.5961 83.7871 38.5089 83.9033 38.3637C83.9904 38.2475 84.0776 38.0732 84.1357 37.8988C84.1938 37.7536 84.2229 37.6374 84.2229 37.4921C84.2519 37.3468 84.2519 37.1144 84.2519 36.7367V32.8728H83.5256ZM81.8987 33.4248C82.1311 33.4248 82.3345 33.4248 82.5088 33.4538C82.6831 33.4829 82.8574 33.541 82.9736 33.5991H83.0027C83.177 33.7153 83.2932 33.8606 83.3513 34.0639C83.4094 34.2382 83.4384 34.4416 83.4384 34.7612C83.4384 35.0227 83.4094 35.197 83.3803 35.3713C83.3222 35.5456 83.2351 35.6909 83.1189 35.8071H83.0898C82.9736 35.8942 82.7993 35.9814 82.5669 36.0104C82.3635 36.0685 82.102 36.0685 81.8406 36.0685C81.2305 36.0685 80.8528 36.0104 80.6204 35.8071C80.3298 35.6037 80.2717 35.2551 80.2717 34.7321C80.2717 34.2092 80.3298 33.8896 80.6204 33.6572C80.8818 33.4829 81.2886 33.4248 81.8987 33.4248ZM91.1373 32.8728V36.7949H91.9508V35.2841C91.9508 34.8774 91.9799 34.5869 92.0089 34.3835C92.038 34.122 92.1251 33.9768 92.2413 33.8315C92.3866 33.6862 92.5318 33.57 92.7643 33.5119C92.9386 33.4538 93.171 33.4248 93.4615 33.4248C93.752 33.4248 93.9845 33.4538 94.1878 33.4829C94.3912 33.541 94.5655 33.6281 94.6817 33.7734C94.7979 33.8896 94.856 34.0349 94.8851 34.2673C94.9141 34.4416 94.9432 34.674 94.9432 35.0517V36.7949H95.7567V35.0517C95.7567 34.4416 95.7276 34.0639 95.6695 33.8025C95.6405 33.541 95.5533 33.3957 95.408 33.2214C95.2628 33.0471 95.1175 32.9599 94.8851 32.8728C94.6527 32.7856 94.3331 32.7566 93.8973 32.7566C93.4906 32.7566 93.2001 32.8147 92.9676 32.9018C92.7933 33.018 92.6481 33.1633 92.5609 33.3957L92.4737 33.57H92.2704H92.1832H91.8927V33.2505V32.8728H91.1373ZM102.41 32.8728L103.891 36.7949H104.24H104.618L104.327 35.9814L103.31 32.8728H102.41ZM104.618 36.7949H104.676L104.56 37.2016C104.414 37.6083 104.298 37.8407 104.124 38.0151C103.949 38.2184 103.717 38.2765 103.397 38.2765H103.368V38.8285C103.456 38.8285 103.572 38.8285 103.688 38.8285C103.92 38.8285 104.095 38.8285 104.24 38.7995C104.356 38.7704 104.472 38.7123 104.56 38.6542C104.647 38.5961 104.676 38.567 104.734 38.4508C104.821 38.3056 104.908 38.0441 105.112 37.5793L107 32.8728H106.07L104.937 35.9814L104.618 36.7949ZM89.0746 35.9814C89.0165 36.1266 88.9003 36.2429 88.6969 36.33C88.4936 36.4172 88.174 36.4462 87.6801 36.4462C87.4186 36.4462 87.1862 36.4462 87.0119 36.3881C86.7795 36.3591 86.6052 36.2719 86.4889 36.1848C86.3727 36.0685 86.3146 35.9523 86.2565 35.778C86.2275 35.6328 86.2275 35.4584 86.2275 35.197V34.9064H86.518H89.9752V34.7612C89.9752 34.2382 89.9462 33.8606 89.8881 33.5991C89.83 33.3667 89.7138 33.1924 89.5685 33.0761C89.4523 32.9599 89.278 32.8728 89.0456 32.8437C88.755 32.7856 88.3193 32.7566 87.7092 32.7566C87.0991 32.7566 86.6923 32.7856 86.4018 32.8437C86.1113 32.8728 85.937 32.9599 85.7917 33.0761C85.6464 33.2214 85.5593 33.3667 85.5012 33.5991C85.414 33.8896 85.385 34.2673 85.385 34.8483C85.385 35.4003 85.414 35.778 85.5012 36.0685C85.5593 36.301 85.6464 36.4462 85.7917 36.5624C85.9079 36.6786 86.0822 36.7658 86.3437 36.8239C86.6342 36.882 87.0409 36.9111 87.5639 36.9111C88.5517 36.9111 89.1327 36.853 89.4813 36.6496C89.7138 36.5043 89.83 36.301 89.9171 35.9814H89.0746ZM86.2275 34.2673C86.2275 33.8315 86.3146 33.57 86.6052 33.3957C86.8376 33.2214 87.1862 33.1924 87.7382 33.1924C88.0287 33.1924 88.2902 33.2214 88.4645 33.2505C88.6969 33.3086 88.8712 33.3957 88.9875 33.541C89.0456 33.6281 89.1037 33.7153 89.1327 33.8606C89.1327 33.9477 89.1618 34.0639 89.1618 34.2673V34.5869H88.8422H86.518H86.1984L86.2275 34.2673ZM100.637 35.6037C100.579 35.8071 100.463 35.9523 100.26 36.0685C100.027 36.2138 99.7078 36.2719 99.243 36.2719C99.0396 36.2719 98.8362 36.2429 98.6619 36.2138C98.4876 36.1848 98.3133 36.1266 98.1971 36.0685C98.0227 35.9814 97.8775 35.8361 97.8194 35.6037C97.7322 35.4294 97.7032 35.1679 97.7032 34.8483C97.7032 34.5288 97.7322 34.2963 97.7903 34.093C97.8775 33.8606 97.9937 33.6862 98.168 33.5991C98.2842 33.541 98.4295 33.4829 98.6328 33.4538C98.8072 33.4248 99.0105 33.3957 99.2139 33.3957C99.6787 33.3957 100.027 33.4538 100.26 33.5991C100.463 33.7153 100.579 33.8896 100.667 34.093H101.538C101.509 33.8606 101.509 33.6862 101.451 33.541C101.393 33.3667 101.335 33.2505 101.219 33.1343C101.073 33.018 100.87 32.9018 100.608 32.8437C100.26 32.7856 99.824 32.7566 99.2139 32.7566C98.6038 32.7566 98.168 32.7856 97.8484 32.8437C97.587 32.9018 97.4126 32.989 97.2674 33.1343C97.1221 33.2505 97.035 33.3957 96.9769 33.6281C96.9188 33.9187 96.8897 34.2673 96.8897 34.7902C96.8897 35.3713 96.9188 35.778 97.0059 36.0685C97.064 36.301 97.1512 36.4462 97.2674 36.5624H97.2964C97.4417 36.6786 97.616 36.7658 97.8775 36.8239C98.168 36.882 98.5747 36.9111 99.1558 36.9111C99.8821 36.9111 100.347 36.882 100.667 36.7949C100.957 36.7367 101.131 36.6205 101.248 36.4753C101.364 36.3591 101.422 36.2429 101.451 36.0685C101.509 35.9523 101.509 35.778 101.538 35.6037H100.637Z" fill="white"/>
<path id="Vector_14" d="M36.3157 38.8576V35.9743L38.331 31.0134H39.5114L36.3157 38.8576Z" fill="white"/>
</g>
</g>
</g>
</svg>
