<svg width="21" height="20" viewBox="0 0 21 20" fill="none" xmlns="http://www.w3.org/2000/svg">
<path d="M20.2797 19.3607L14.5414 13.5257C16.005 12.0904 16.9118 10.1118 16.9118 7.92962C16.9118 3.557 13.274 0 8.80197 0C4.32998 0 0.692139 3.557 0.692139 7.92962C0.692139 12.3022 4.32998 15.8592 8.80197 15.8592C10.7649 15.8592 12.5665 15.1731 13.9706 14.0347L19.7228 19.8841C19.7985 19.9615 19.8997 20 20.0013 20C20.0978 20 20.194 19.9649 20.2689 19.8946C20.4226 19.75 20.4272 19.511 20.2797 19.3607ZM8.80197 15.104C4.75593 15.104 1.4645 11.8857 1.4645 7.92962C1.4645 3.97349 4.75593 0.755201 8.80197 0.755201C12.848 0.755201 16.1394 3.97349 16.1394 7.92962C16.1394 11.8857 12.8476 15.104 8.80197 15.104Z" fill="#0D0D0D"/>
</svg>
