<svg width="27" height="25" viewBox="0 0 27 25" fill="none" xmlns="http://www.w3.org/2000/svg">
<g id="telegram_3mc162kyy5f6" clip-path="url(#clip0_268_58)">
<path id="Vector" d="M13.4887 25C20.5508 25 26.2728 19.4052 26.2728 12.5C26.2728 5.59479 20.5508 0 13.4887 0C6.42653 0 0.70459 5.59479 0.70459 12.5C0.70459 19.4052 6.42653 25 13.4887 25ZM6.55438 12.2292L18.8804 7.58229C19.4525 7.38021 19.9521 7.71875 19.7667 8.56458L19.7678 8.56354L17.6691 18.2313C17.5135 18.9167 17.097 19.0833 16.5142 18.7604L13.3182 16.4573L11.7767 17.9094C11.6062 18.076 11.4624 18.2167 11.1321 18.2167L11.3591 15.0365L17.2824 9.80417C17.5402 9.58229 17.2248 9.45729 16.885 9.67813L9.56503 14.1844L6.40949 13.2219C5.72447 13.0094 5.70956 12.5521 6.55438 12.2292Z" fill="white"/>
</g>
<defs>
<clipPath id="clip0_268_58">
<rect width="25.5682" height="25" fill="white" transform="translate(0.70459)"/>
</clipPath>
</defs>
</svg>
