<svg width="27" height="25" viewBox="0 0 27 25" fill="none" xmlns="http://www.w3.org/2000/svg">
<g id="round_account_button_with_user_inside_rl0ul8eu9a9b" clip-path="url(#clip0_268_66)">
<g id="Group">
<g id="account-circle">
<path id="Vector" d="M13.2841 0C6.25285 0 0.5 5.625 0.5 12.5C0.5 19.375 6.25285 25 13.2841 25C20.3154 25 26.0682 19.375 26.0682 12.5C26.0682 5.625 20.3154 0 13.2841 0ZM13.2841 3.75C15.4574 3.75 17.1194 5.375 17.1194 7.5C17.1194 9.625 15.4574 11.25 13.2841 11.25C11.1108 11.25 9.44888 9.625 9.44888 7.5C9.44888 5.375 11.1108 3.75 13.2841 3.75ZM13.2841 21.5C10.0881 21.5 7.27558 19.875 5.61365 17.5C5.61365 15 10.7273 13.625 13.2841 13.625C15.8409 13.625 20.9546 15 20.9546 17.5C19.2927 19.875 16.4801 21.5 13.2841 21.5Z" fill="white"/>
</g>
</g>
</g>
<defs>
<clipPath id="clip0_268_66">
<rect width="25.5682" height="25" fill="white" transform="translate(0.5)"/>
</clipPath>
</defs>
</svg>
