<svg width="27" height="25" viewBox="0 0 27 25" fill="none" xmlns="http://www.w3.org/2000/svg">
<g id="whatsapp_9cq42fwl78ag" clip-path="url(#clip0_268_60)">
<g id="Group">
<g id="Group_2">
<path id="Vector" d="M13.6281 0H13.6217C6.57289 0 0.84082 5.60625 0.84082 12.5C0.84082 15.2344 1.7421 17.7688 3.27459 19.8266L1.68137 24.4703L6.59526 22.9344C8.61674 24.2438 11.0281 25 13.6281 25C20.6769 25 26.409 19.3922 26.409 12.5C26.409 5.60781 20.6769 0 13.6281 0ZM21.0668 17.6516C20.7584 18.5031 19.5344 19.2094 18.558 19.4156C17.89 19.5547 17.0175 19.6656 14.0803 18.475C10.3234 16.9531 7.90403 13.2203 7.71546 12.9781C7.53489 12.7359 6.19735 11.0016 6.19735 9.20781C6.19735 7.41406 7.12899 6.54063 7.50453 6.16563C7.81294 5.85781 8.32271 5.71719 8.8117 5.71719C8.9699 5.71719 9.11213 5.725 9.23997 5.73125C9.6155 5.74687 9.80406 5.76875 10.0518 6.34844C10.3602 7.075 11.1112 8.86875 11.2007 9.05313C11.2918 9.2375 11.3829 9.4875 11.2551 9.72969C11.1352 9.97969 11.0297 10.0906 10.8412 10.3031C10.6526 10.5156 10.4736 10.6781 10.2851 10.9063C10.1125 11.1047 9.91752 11.3172 10.1349 11.6844C10.3522 12.0438 11.1032 13.2422 12.2091 14.2047C13.6361 15.4469 14.7931 15.8438 15.2069 16.0125C15.5154 16.1375 15.8829 16.1078 16.1082 15.8734C16.3943 15.5719 16.7474 15.0719 17.107 14.5797C17.3627 14.2266 17.6855 14.1828 18.0242 14.3078C18.3694 14.425 20.1959 15.3078 20.5715 15.4906C20.947 15.675 21.1947 15.7625 21.2858 15.9172C21.3753 16.0719 21.3753 16.7984 21.0668 17.6516Z" fill="white"/>
</g>
</g>
</g>
<defs>
<clipPath id="clip0_268_60">
<rect width="25.5682" height="25" fill="white" transform="translate(0.84082)"/>
</clipPath>
</defs>
</svg>
